<?xml version="1.0" standalone="no"?>
<!DOCTYPE svg PUBLIC "-//W3C//DTD SVG 20010904//EN"
 "http://www.w3.org/TR/2001/REC-SVG-20010904/DTD/svg10.dtd">
<svg version="1.0" xmlns="http://www.w3.org/2000/svg"
 width="300.000000pt" height="168.000000pt" viewBox="0 0 300.000000 168.000000"
 preserveAspectRatio="xMidYMid meet">

<g transform="translate(0.000000,168.000000) scale(0.100000,-0.100000)"
fill="#000000" stroke="none">
<path d="M0 840 l0 -840 1500 0 1500 0 0 840 0 840 -894 0 -893 0 -13 -45
c-18 -63 -30 -65 -30 -6 l0 51 -585 0 -585 0 0 -840z m378 702 c-37 -83 -43
-90 -67 -75 -15 9 -26 9 -50 0 -25 -9 -37 -8 -73 10 -24 11 -55 24 -71 27 -15
4 -27 11 -27 17 0 6 7 8 16 5 48 -19 64 -18 64 1 0 27 34 55 62 51 37 -5 31
-49 -9 -69 -38 -19 -33 -29 13 -29 21 0 37 6 43 17 9 17 10 17 29 0 19 -18 21
-17 52 52 18 39 36 68 41 66 4 -3 -6 -36 -23 -73z m-298 -8 c0 -8 -4 -12 -10
-9 -5 3 -10 10 -10 16 0 5 5 9 10 9 6 0 10 -7 10 -16z m968 -62 c4 -28 -24
-41 -44 -20 -20 20 -7 50 20 46 13 -2 22 -12 24 -26z m1215 -26 l25 -44 -25
-41 c-23 -40 -26 -41 -77 -41 -51 0 -53 1 -76 41 l-23 42 24 43 c23 43 25 44
75 44 51 0 53 -1 77 -44z m47 26 c0 -13 -12 -22 -22 -16 -10 6 -1 24 13 24 5
0 9 -4 9 -8z m-1395 -41 c3 -5 0 -13 -6 -17 -7 -4 -9 -3 -5 4 3 5 0 13 -6 15
-9 4 -10 6 -1 6 6 1 14 -3 18 -8z m1024 -28 l-115 -4 -60 -60 -59 -60 35 -26
c50 -39 107 -103 121 -135 11 -26 15 -28 73 -28 61 0 62 1 111 50 l49 50 159
0 c87 0 156 -4 153 -8 -3 -5 -72 -8 -153 -7 l-148 1 -56 -53 c-53 -50 -59 -53
-108 -53 l-53 0 9 -32 c4 -18 8 -75 8 -125 l0 -93 31 0 c20 0 39 -9 54 -25 22
-24 28 -25 169 -28 l146 -3 -151 -2 c-141 -2 -152 -1 -169 18 -14 15 -29 20
-53 18 -30 -3 -35 -8 -57 -63 -13 -33 -18 -52 -12 -43 18 23 42 7 34 -23 -5
-18 2 -32 30 -61 l37 -38 98 0 c59 0 98 -4 98 -10 0 -6 -35 -10 -82 -11 -52
-1 -74 -4 -58 -8 l25 -7 -23 -8 c-17 -6 -20 -11 -13 -20 8 -9 8 -23 0 -47 -6
-19 -13 -40 -15 -48 -3 -11 -8 -11 -16 -3 -8 8 -14 7 -24 -2 -7 -7 -43 -16
-81 -20 -81 -7 -113 -15 -113 -27 0 -5 11 -9 24 -9 13 0 26 -7 29 -15 9 -22
-6 -26 -37 -10 -14 8 -24 10 -21 5 11 -18 -16 -10 -72 20 -37 21 -67 30 -96
29 l-42 0 55 -15 c62 -17 96 -41 41 -29 -26 5 -32 4 -26 -5 6 -10 1 -11 -21
-6 -85 19 -95 19 -108 1 -11 -16 -18 -16 -46 -7 -32 12 -99 16 -72 5 10 -4 10
-8 2 -18 -10 -11 -17 -10 -43 6 -18 10 -40 19 -49 19 -9 0 -29 11 -43 24 -14
13 -40 29 -58 36 -17 7 -46 19 -64 26 -17 8 -36 14 -43 14 -7 0 -33 11 -59 24
-86 46 -140 66 -175 66 -29 0 -36 4 -36 19 0 44 83 61 134 27 14 -9 32 -16 40
-16 8 0 17 -6 20 -12 5 -10 7 -10 12 0 8 18 32 15 73 -10 20 -13 44 -21 53
-20 26 5 86 -27 93 -49 7 -23 43 -25 51 -4 4 9 19 15 40 15 30 0 34 3 34 25 0
23 -2 24 -45 18 l-45 -6 0 47 c0 42 2 46 25 46 14 0 25 5 25 11 0 6 -9 8 -20
4 -11 -4 -20 -2 -20 4 0 6 -10 15 -21 22 -16 8 -20 8 -14 -1 6 -9 2 -9 -14 0
-16 8 -20 17 -16 33 4 16 4 18 -3 8 -6 -8 -12 -9 -16 -3 -3 6 6 20 21 31 14
12 31 32 37 44 6 12 26 26 44 32 51 15 41 37 -15 33 -46 -3 -48 -4 -48 -32 0
-16 -6 -31 -12 -33 -21 -7 -26 25 -9 52 14 21 24 25 66 25 44 0 50 2 50 21 0
20 -3 21 -55 15 -45 -5 -55 -3 -55 9 0 12 11 14 60 8 52 -5 60 -4 60 11 0 13
-12 16 -68 16 -37 0 -73 -5 -79 -11 -15 -15 -33 -3 -33 21 0 24 18 36 33 21 6
-6 42 -11 79 -11 56 0 68 3 68 16 0 14 -9 16 -55 12 -56 -5 -77 4 -57 24 7 7
16 8 24 1 7 -5 29 -9 48 -9 26 1 36 6 38 20 4 17 0 18 -42 13 -47 -7 -65 3
-42 22 10 8 16 9 21 1 10 -16 65 -12 65 5 0 10 -10 15 -28 15 -35 0 -52 16
-52 51 0 15 -4 31 -10 34 -16 10 -12 45 6 52 25 9 41 -14 26 -37 -15 -25 -15
-63 0 -78 17 -17 58 -15 58 2 0 8 10 16 23 18 12 2 22 10 23 18 1 26 -17 40
-42 34 -20 -5 -24 -2 -24 15 0 26 6 26 48 1 22 -14 32 -27 32 -45 0 -16 6 -25
16 -25 14 0 16 9 11 60 -4 53 -3 60 13 60 16 0 17 -7 13 -61 l-6 -61 29 4 c28
3 29 5 31 62 1 39 -3 64 -12 73 -19 19 -7 45 19 41 15 -2 20 -9 17 -23 -2 -11
-6 -50 -8 -87 -4 -65 -4 -68 18 -68 21 0 22 3 16 60 -4 46 -2 60 8 60 20 0 28
-19 15 -35 -17 -21 -9 -79 13 -83 13 -3 17 3 17 26 0 33 13 47 53 57 21 6 27
4 27 -9 0 -12 -7 -16 -26 -14 -30 3 -51 -20 -41 -46 4 -9 17 -16 31 -16 13 0
26 -7 30 -15 7 -18 37 -20 54 -3 14 14 16 68 2 68 -16 0 -11 40 6 47 25 9 41
-14 26 -37 -6 -11 -12 -32 -12 -46 0 -29 -24 -53 -52 -54 -10 0 -18 -7 -18
-16 0 -12 10 -14 48 -12 46 3 47 3 44 36 -2 26 2 32 18 32 26 0 25 -20 -1 -54
-17 -21 -29 -26 -65 -26 -34 0 -44 -4 -44 -16 0 -14 9 -16 50 -12 51 5 71 -5
51 -25 -8 -8 -14 -8 -23 1 -7 7 -27 12 -45 12 -27 0 -33 -4 -33 -21 0 -19 4
-20 63 -16 34 2 71 6 82 8 13 3 21 -2 23 -15 5 -25 -14 -44 -30 -28 -7 7 -39
12 -75 12 -52 0 -63 -3 -63 -16 0 -14 7 -15 40 -10 36 6 40 4 40 -14 0 -18 -4
-20 -40 -14 -34 6 -40 4 -40 -11 0 -14 8 -16 53 -13 41 2 52 0 52 -12 0 -12
-11 -14 -52 -12 -34 3 -53 0 -53 -7 0 -6 8 -11 17 -11 20 0 53 -28 53 -45 0
-6 8 -13 18 -14 87 -9 91 -7 116 78 43 144 -11 315 -130 414 -152 127 -382
121 -529 -14 -53 -49 -100 -122 -92 -143 7 -17 -18 -40 -33 -31 -14 9 -13 32
3 42 6 4 17 18 24 29 10 19 7 25 -20 52 l-32 31 -130 4 -130 3 136 2 135 2 28
-29 29 -30 43 47 43 47 -47 48 -46 47 -88 0 c-52 0 -88 4 -88 10 0 6 36 10 87
10 l87 0 52 -51 52 -51 76 38 c102 50 198 57 307 24 l72 -22 61 61 61 61 120
-2 120 -2 -116 -3z m-1059 -49 c0 -2 -7 -4 -15 -4 -8 0 -15 4 -15 10 0 5 7 7
15 4 8 -4 15 -8 15 -10z m1067 -1 c2 -6 -13 -10 -37 -10 -23 0 -40 5 -40 11 0
14 72 14 77 -1z m48 2 c0 -5 -8 -11 -17 -12 -10 -2 -18 3 -18 10 0 8 8 13 18
12 9 0 17 -5 17 -10z m45 -6 c0 -5 -4 -9 -10 -9 -5 0 -10 7 -10 16 0 8 5 12
10 9 6 -3 10 -10 10 -16z m25 12 c3 -5 1 -12 -5 -16 -5 -3 -10 1 -10 9 0 18 6
21 15 7z m-365 -32 c0 -5 -7 -9 -15 -9 -15 0 -20 12 -9 23 8 8 24 -1 24 -14z
m-755 -9 c-3 -5 -12 -10 -18 -10 -7 0 -6 4 3 10 19 12 23 12 15 0z m1155 -19
c0 -6 -4 -13 -10 -16 -5 -3 -10 1 -10 9 0 9 5 16 10 16 6 0 10 -4 10 -9z
m-1187 -8 c-7 -2 -19 -2 -25 0 -7 3 -2 5 12 5 14 0 19 -2 13 -5z m-303 -18 c0
-8 -4 -15 -9 -15 -13 0 -22 16 -14 24 11 11 23 6 23 -9z m173 -37 l25 -43 -21
-40 c-21 -38 -24 -40 -78 -43 l-55 -3 -23 42 -24 42 24 43 c23 43 25 44 75 44
50 0 53 -1 77 -42z m282 12 c0 -8 -8 -16 -17 -18 -13 -2 -18 3 -18 18 0 15 5
20 18 18 9 -2 17 -10 17 -18z m1534 -25 l23 -44 -26 -44 c-24 -42 -27 -44 -69
-43 -53 3 -63 8 -86 53 -18 36 -18 36 6 79 24 43 26 44 76 44 51 0 52 -1 76
-45z m-1437 20 c0 -5 -5 -11 -11 -13 -6 -2 -11 4 -11 13 0 9 5 15 11 13 6 -2
11 -8 11 -13z m-172 -4 c0 -6 -4 -13 -10 -16 -5 -3 -10 1 -10 9 0 9 5 16 10
16 6 0 10 -4 10 -9z m382 -16 c0 -5 -5 -11 -11 -13 -6 -2 -11 4 -11 13 0 9 5
15 11 13 6 -2 11 -8 11 -13z m655 -61 c-9 -9 -28 6 -21 18 4 6 10 6 17 -1 6
-6 8 -13 4 -17z m-77 -9 c0 -8 -7 -15 -15 -15 -8 0 -15 7 -15 15 0 8 7 15 15
15 8 0 15 -7 15 -15z m-1110 -11 c0 -8 -5 -12 -10 -9 -6 4 -8 11 -5 16 9 14
15 11 15 -7z m180 2 c0 -7 -29 -10 -82 -9 -96 1 -91 1 -84 11 7 13 166 11 166
-2z m1144 5 c3 -5 -1 -11 -9 -15 -9 -3 -15 0 -15 9 0 16 16 20 24 6z m166 0
c0 -6 -4 -13 -10 -16 -5 -3 -10 1 -10 9 0 9 5 16 10 16 6 0 10 -4 10 -9z m30
0 c0 -6 -4 -13 -10 -16 -5 -3 -10 1 -10 9 0 9 5 16 10 16 6 0 10 -4 10 -9z
m25 0 c3 -5 1 -12 -5 -16 -5 -3 -10 1 -10 9 0 18 6 21 15 7z m-1188 -57 c-9
-9 -28 6 -21 18 4 6 10 6 17 -1 6 -6 8 -13 4 -17z m-193 -10 c12 -5 16 -20 16
-59 0 -50 -1 -53 -22 -47 -21 5 -21 6 -2 13 17 7 16 8 -6 9 -14 1 -32 2 -42 1
-9 -1 -19 3 -23 9 -4 6 -3 10 2 9 28 -5 83 3 83 12 0 6 -9 8 -20 4 -11 -3 -20
-2 -20 4 0 5 10 11 22 13 21 3 21 4 4 21 -19 18 -17 21 8 11z m-264 -14 c0 -5
-7 -10 -15 -10 -8 0 -15 5 -15 10 0 6 7 10 15 10 8 0 15 -4 15 -10z m108 -8
c2 -7 -3 -12 -12 -12 -9 0 -16 7 -16 16 0 17 22 14 28 -4z m1087 -11 c3 -5 1
-12 -5 -16 -5 -3 -10 1 -10 9 0 18 6 21 15 7z m-1259 -12 c3 -6 -9 -23 -27
-39 -29 -24 -32 -30 -20 -43 7 -9 11 -22 8 -29 -3 -8 -10 -2 -18 15 -10 22
-10 32 -1 45 7 9 16 27 22 40 10 24 25 29 36 11z m284 2 c0 -6 -9 -9 -19 -8
-11 0 -17 5 -15 9 7 11 34 10 34 -1z m1260 -16 c19 -23 -3 -65 -34 -65 -35 0
-52 24 -38 55 13 29 52 34 72 10z m-243 -51 c8 3 26 6 40 6 23 0 24 2 12 17
-12 14 -12 16 1 11 11 -3 15 -20 16 -59 1 -35 0 -41 -3 -16 -4 38 -5 38 -41
32 -39 -6 -56 -15 -29 -15 10 0 17 -5 17 -11 0 -5 -5 -7 -11 -3 -6 3 -14 1
-18 -5 -4 -7 -8 10 -8 36 0 26 2 38 4 25 3 -16 9 -22 20 -18z m413 5 c0 -5 -7
-9 -15 -9 -15 0 -20 12 -9 23 8 8 24 -1 24 -14z m-1430 -4 c0 -9 -6 -12 -15
-9 -8 4 -12 10 -9 15 8 14 24 10 24 -6z m30 -76 c0 -5 4 -8 8 -5 12 7 8 -32
-5 -45 -7 -7 -14 -5 -22 5 -8 10 -9 16 -1 21 6 4 10 3 9 -2 -3 -17 1 -24 11
-18 7 4 7 13 0 26 -6 11 -16 16 -22 13 -7 -4 -8 -3 -4 4 9 15 26 16 26 1z
m1000 7 c0 -3 -4 -8 -10 -11 -5 -3 -10 -1 -10 4 0 6 5 11 10 11 6 0 10 -2 10
-4z m37 -2 c-3 -3 -12 -4 -19 -1 -8 3 -5 6 6 6 11 1 17 -2 13 -5z m85 -9 c0
-5 -5 -11 -11 -13 -6 -2 -11 4 -11 13 0 9 5 15 11 13 6 -2 11 -8 11 -13z
m-244 -36 c-2 -6 -8 -10 -13 -10 -5 0 -11 4 -13 10 -2 6 4 11 13 11 9 0 15 -5
13 -11z m-708 -19 c0 -5 -4 -10 -10 -10 -5 0 -10 5 -10 10 0 6 5 10 10 10 6 0
10 -4 10 -10z m908 -8 c2 -7 -3 -12 -12 -12 -9 0 -16 7 -16 16 0 17 22 14 28
-4z m413 -24 l22 -42 -23 -43 c-22 -42 -24 -43 -75 -43 -49 0 -52 2 -73 39
-27 48 -27 51 -1 95 20 34 24 36 75 36 53 0 54 0 75 -42z m-1693 -26 c4 -40
-32 -68 -71 -53 -48 18 -47 82 1 99 37 13 66 -6 70 -46z m122 48 c0 -5 -4 -10
-10 -10 -5 0 -10 5 -10 10 0 6 5 10 10 10 6 0 10 -4 10 -10z m140 -25 l-34
-35 -108 0 c-65 0 -108 4 -108 10 0 6 43 10 108 10 103 0 110 1 132 25 13 14
28 25 34 25 5 0 -5 -16 -24 -35z m1117 22 c-4 -14 -77 -15 -77 -1 0 6 18 11
40 11 23 0 39 -5 37 -10z m33 4 c0 -6 -4 -13 -10 -16 -5 -3 -10 1 -10 9 0 9 5
16 10 16 6 0 10 -4 10 -9z m30 0 c0 -6 -4 -13 -10 -16 -5 -3 -10 1 -10 9 0 9
5 16 10 16 6 0 10 -4 10 -9z m30 0 c0 -6 -4 -13 -10 -16 -5 -3 -10 1 -10 9 0
9 5 16 10 16 6 0 10 -4 10 -9z m30 -1 c0 -5 -4 -10 -10 -10 -5 0 -10 5 -10 10
0 6 5 10 10 10 6 0 10 -4 10 -10z m-1430 -15 c0 -8 -4 -15 -10 -15 -5 0 -10 7
-10 15 0 8 5 15 10 15 6 0 10 -7 10 -15z m-650 -50 c0 -8 -4 -15 -10 -15 -5 0
-10 7 -10 15 0 8 5 15 10 15 6 0 10 -7 10 -15z m880 -15 c0 -5 -7 -10 -15 -10
-8 0 -15 5 -15 10 0 6 7 10 15 10 8 0 15 -4 15 -10z m-250 -16 c0 -8 -5 -12
-10 -9 -6 4 -8 11 -5 16 9 14 15 11 15 -7z m167 -11 c-3 -3 -11 -2 -17 2 -9 6
-9 10 1 16 14 8 27 -7 16 -18z m-137 7 c0 -5 -2 -10 -4 -10 -3 0 -8 5 -11 10
-3 6 -1 10 4 10 6 0 11 -4 11 -10z m30 0 c0 -5 -4 -10 -10 -10 -5 0 -10 5 -10
10 0 6 5 10 10 10 6 0 10 -4 10 -10z m1132 -5 c0 -5 -5 -11 -11 -13 -6 -2 -11
4 -11 13 0 9 5 15 11 13 6 -2 11 -8 11 -13z m-1352 -15 c0 -5 -4 -10 -10 -10
-5 0 -10 5 -10 10 0 6 5 10 10 10 6 0 10 -4 10 -10z m380 0 c0 -5 -2 -10 -4
-10 -3 0 -8 5 -11 10 -3 6 -1 10 4 10 6 0 11 -4 11 -10z m890 -10 c0 -13 -7
-20 -20 -20 -13 0 -20 7 -20 20 0 13 7 20 20 20 13 0 20 -7 20 -20z m-960 -30
c0 -11 -7 -20 -15 -20 -8 0 -15 9 -15 20 0 11 7 20 15 20 8 0 15 -9 15 -20z
m1074 -5 c2 -7 -2 -21 -9 -32 -11 -14 -18 -16 -32 -7 -20 12 -24 33 -8 50 12
13 42 7 49 -11z m-974 -50 c0 -8 -7 -15 -15 -15 -8 0 -15 7 -15 15 0 8 7 15
15 15 8 0 15 -7 15 -15z m1188 -23 c19 -25 14 -49 -14 -71 -38 -30 -84 -9 -84
40 0 52 65 73 98 31z m42 18 c0 -5 -7 -10 -16 -10 -8 0 -12 5 -9 10 3 6 10 10
16 10 5 0 9 -4 9 -10z m-1160 -55 c0 -8 -7 -15 -15 -15 -8 0 -15 7 -15 15 0 8
7 15 15 15 8 0 15 -7 15 -15z m1011 -57 c56 -56 30 -128 -47 -128 -32 0 -93
17 -108 31 -14 12 2 56 33 91 39 44 81 46 122 6z m-831 -9 c0 -5 -16 -9 -35
-9 -20 0 -35 -5 -35 -12 0 -6 -3 -9 -6 -5 -4 3 -4 13 -1 21 6 15 77 20 77 5z
m-460 -88 c0 -11 5 -21 12 -23 14 -5 -10 -43 -27 -44 -5 0 -23 -4 -38 -8 -22
-7 -31 -4 -43 10 -14 18 -14 17 -4 -4 14 -28 14 -28 -27 -36 -61 -14 -55 40
10 82 75 48 117 57 117 23z m978 -52 c-2 -6 -8 -10 -13 -10 -5 0 -11 4 -13 10
-2 6 4 11 13 11 9 0 15 -5 13 -11z m-654 -21 c10 -38 7 -43 -28 -62 -38 -20
-65 -19 -76 4 -4 8 -13 26 -19 39 -11 21 -11 23 3 18 8 -3 28 0 43 8 41 22 70
19 77 -7z m-139 -9 c4 -11 4 -23 0 -27 -7 -7 -25 17 -25 36 0 20 18 14 25 -9z"/>
<path d="M200 1545 c-7 -9 -10 -18 -7 -21 10 -10 47 7 47 22 0 19 -24 18 -40
-1z"/>
<path d="M2126 1443 l-23 -38 21 -37 c19 -34 25 -38 63 -38 36 0 43 4 62 35
l21 36 -20 39 c-19 36 -24 40 -60 40 -35 0 -43 -4 -64 -37z m95 -10 c12 -16
12 -17 -2 -5 -9 7 -25 10 -35 6 -16 -5 -16 -4 -4 5 20 15 25 14 41 -6z m-78
-28 c-3 -9 -8 -14 -10 -11 -3 3 -2 9 2 15 9 16 15 13 8 -4z m65 -17 c2 -11 -5
-15 -23 -15 -23 0 -33 15 -19 29 10 11 39 1 42 -14z"/>
<path d="M1490 1245 c0 -9 5 -15 11 -13 6 2 11 8 11 13 0 5 -5 11 -11 13 -6 2
-11 -4 -11 -13z"/>
<path d="M1240 1166 c0 -9 7 -16 16 -16 9 0 14 5 12 12 -6 18 -28 21 -28 4z"/>
<path d="M1736 1173 c-11 -11 -6 -23 9 -23 8 0 15 4 15 9 0 13 -16 22 -24 14z"/>
<path d="M1493 1072 l-143 -3 1 -142 c2 -161 16 -144 18 21 l1 103 133 -3 132
-3 3 -127 c1 -71 7 -128 11 -128 5 0 10 62 10 139 1 106 -1 139 -11 142 -7 2
-77 3 -155 1z"/>
<path d="M1380 920 c0 -92 3 -120 13 -120 7 0 18 5 24 11 15 15 142 17 151 2
4 -7 18 -11 30 -10 21 1 22 5 22 119 l0 118 -120 0 -120 0 0 -120z m129 13
c12 -32 25 -65 30 -73 7 -12 3 -16 -15 -15 -13 0 -29 6 -36 13 -14 14 -38 16
-38 3 0 -5 -10 -11 -21 -14 -20 -5 -21 -3 -16 31 8 61 33 112 56 112 15 0 25
-14 40 -57z m85 35 c8 -30 8 -92 0 -112 -9 -24 -42 -2 -39 26 1 13 3 42 4 66
1 46 24 59 35 20z"/>
<path d="M1165 930 c-4 -6 -3 -16 3 -22 6 -6 12 -6 17 2 4 6 3 16 -3 22 -6 6
-12 6 -17 -2z"/>
<path d="M1815 930 c-4 -6 -3 -16 3 -22 6 -6 12 -6 17 2 4 6 3 16 -3 22 -6 6
-12 6 -17 -2z"/>
<path d="M1269 753 c-13 -15 -12 -15 11 -3 34 17 36 20 18 20 -9 0 -22 -7 -29
-17z"/>
<path d="M1690 766 c0 -2 9 -6 20 -9 11 -3 18 -1 14 4 -5 9 -34 13 -34 5z"/>
<path d="M1875 681 c-3 -5 -2 -12 3 -15 5 -3 9 1 9 9 0 17 -3 19 -12 6z"/>
<path d="M1840 650 c0 -5 -6 -10 -14 -10 -8 0 -30 -19 -49 -41 -35 -42 -57
-45 -57 -8 0 12 7 19 18 19 11 0 26 8 35 18 15 16 15 19 2 19 -8 0 -15 -5 -15
-11 0 -7 -12 -13 -26 -14 -33 -2 -59 -22 -61 -44 -3 -61 0 -58 -57 -58 -31 0
-56 5 -58 11 -2 6 -24 12 -48 14 -43 3 -96 15 -132 30 -16 6 -18 1 -18 -49 0
-46 3 -56 17 -56 9 0 29 -14 45 -32 15 -17 31 -28 35 -25 3 4 -4 18 -17 32
l-23 24 24 9 c13 5 43 12 67 16 33 5 44 3 48 -9 4 -8 12 -15 20 -15 7 0 11 6
8 14 -7 17 27 30 55 21 10 -3 25 0 32 8 16 15 97 47 121 47 8 0 18 9 21 20 6
25 37 26 37 2 0 -16 9 -19 52 -21 l53 -2 -40 42 c-45 45 -75 66 -75 49z"/>
<path d="M1270 580 c0 -5 7 -7 15 -4 8 4 15 1 15 -5 0 -6 7 -8 15 -5 25 10 17
24 -15 24 -16 0 -30 -4 -30 -10z"/>
<path d="M1650 565 c0 -22 -22 -28 -53 -16 -22 9 -27 8 -27 -4 0 -11 12 -15
45 -15 41 0 45 2 45 25 0 14 -2 25 -5 25 -3 0 -5 -7 -5 -15z"/>
<path d="M1290 538 c0 -4 14 -8 30 -8 17 0 30 4 30 9 0 5 -13 9 -30 9 -16 -1
-30 -5 -30 -10z"/>
<path d="M1740 515 c-7 -8 -8 -15 -2 -15 5 0 15 7 22 15 7 8 8 15 2 15 -5 0
-15 -7 -22 -15z"/>
<path d="M1715 440 c-3 -5 -2 -10 4 -10 5 0 13 5 16 10 3 6 2 10 -4 10 -5 0
-13 -4 -16 -10z"/>
<path d="M1680 419 c0 -5 5 -7 10 -4 6 3 10 8 10 11 0 2 -4 4 -10 4 -5 0 -10
-5 -10 -11z"/>
<path d="M1415 370 c-24 -5 -27 -8 -13 -14 10 -5 36 -1 60 7 39 14 40 15 13
15 -16 0 -43 -4 -60 -8z"/>
<path d="M650 1238 c-24 -40 -24 -39 -3 -83 15 -32 20 -35 59 -35 38 0 45 4
65 36 l22 36 -21 36 c-18 32 -27 37 -61 40 -37 3 -43 0 -61 -30z m37 -74 c-3
-3 -12 -4 -19 -1 -8 3 -5 6 6 6 11 1 17 -2 13 -5z"/>
<path d="M2489 1252 c-9 -1 -23 -19 -33 -38 -16 -34 -16 -37 5 -70 18 -30 26
-34 63 -34 37 0 43 4 60 35 18 33 18 38 3 69 -12 26 -23 34 -49 37 -18 3 -40
3 -49 1z m51 -76 c0 -2 -8 -10 -17 -17 -16 -13 -17 -12 -4 4 13 16 21 21 21
13z"/>
<path d="M2341 803 c-19 -38 -19 -38 3 -75 19 -34 25 -38 61 -38 36 0 42 4 62
38 l21 38 -21 37 c-19 34 -25 37 -64 37 -39 0 -44 -3 -62 -37z m110 -10 c13
-16 12 -17 -3 -4 -17 13 -22 21 -14 21 2 0 10 -8 17 -17z m-51 -3 c-13 -8 -12
-10 3 -10 9 0 17 -7 17 -15 0 -21 -17 -19 -29 4 -11 19 -5 31 13 31 6 0 4 -5
-4 -10z m-17 -55 c-3 -9 -8 -14 -10 -11 -3 3 -2 9 2 15 9 16 15 13 8 -4z"/>
<path d="M713 813 c-7 -2 -13 -15 -13 -27 0 -47 53 -63 72 -21 18 39 -15 66
-59 48z m41 -54 c-9 -14 -27 -6 -30 14 -2 14 1 15 17 6 11 -5 17 -15 13 -20z"/>
<path d="M2200 580 c-22 -40 26 -80 58 -48 17 17 15 55 -4 62 -27 11 -43 7
-54 -14z m57 -13 c0 -8 -6 -14 -14 -14 -9 0 -10 4 -2 14 6 7 12 13 14 13 1 0
2 -6 2 -13z"/>
</g>
</svg>
