<?xml version="1.0" standalone="no"?>
<!DOCTYPE svg PUBLIC "-//W3C//DTD SVG 20010904//EN"
 "http://www.w3.org/TR/2001/REC-SVG-20010904/DTD/svg10.dtd">
<svg version="1.0" xmlns="http://www.w3.org/2000/svg"
 width="1080.000000pt" height="1080.000000pt" viewBox="0 0 1080.000000 1080.000000"
 preserveAspectRatio="xMidYMid meet">

<g transform="translate(0.000000,1080.000000) scale(0.100000,-0.100000)"
fill="#000000" stroke="none">
<path d="M1550 8670 l0 -1050 23 0 c12 0 29 -5 37 -11 11 -7 6 -9 -20 -7 l-35
3 -3 -952 c-1 -586 2 -953 7 -953 5 0 16 7 24 15 12 11 16 12 19 3 4 -10 11
-10 34 1 16 8 40 15 54 17 14 2 34 7 45 13 27 13 57 23 75 27 8 2 16 7 18 13
2 5 9 8 17 5 7 -3 16 -1 19 5 4 6 13 8 21 4 8 -3 15 0 15 6 0 6 3 10 8 10 4
-1 10 0 15 1 4 1 10 3 15 4 29 7 52 19 52 27 0 6 4 8 9 5 5 -4 22 -1 38 6 15
6 30 12 33 13 3 1 19 7 35 14 42 18 137 30 155 20 13 -7 13 -8 0 -9 -8 0 7
-11 35 -24 31 -15 44 -25 35 -29 -12 -4 -11 -6 2 -6 9 -1 33 -10 52 -22 20
-11 44 -22 53 -24 10 -2 18 -4 18 -6 0 -1 20 -3 44 -3 25 -1 47 -8 49 -14 2
-7 10 -12 18 -12 8 0 14 -5 14 -11 0 -6 -9 -9 -20 -6 -11 3 -18 2 -15 -3 3 -4
16 -10 30 -12 21 -5 24 -2 21 18 -4 18 -1 21 12 17 11 -5 12 -8 4 -11 -20 -6
6 -32 32 -32 17 0 18 -2 6 -10 -13 -8 -13 -10 1 -10 9 0 28 -9 42 -20 31 -25
44 -26 26 -2 -13 15 -12 16 4 3 20 -16 22 -31 5 -31 -20 -1 -70 -49 -63 -60 3
-5 0 -7 -8 -4 -8 3 -18 1 -22 -5 -3 -6 -24 -11 -46 -11 -21 0 -39 -4 -39 -9 0
-6 -20 -13 -45 -17 -25 -3 -48 -10 -51 -15 -3 -5 -16 -9 -30 -9 -13 0 -24 -6
-24 -13 0 -8 -15 -14 -42 -16 -23 -1 -45 -4 -50 -7 -4 -3 -8 1 -8 8 0 8 -3 9
-8 3 -4 -6 -78 -11 -177 -13 -212 -3 -283 -8 -365 -27 -36 -9 -95 -21 -132
-27 l-68 -12 0 -727 0 -727 118 61 c64 33 127 68 139 79 24 22 36 55 22 64 -5
3 -3 15 5 26 11 15 13 36 10 72 -7 61 -7 60 -4 66 6 17 5 52 -2 56 -5 3 -1 12
9 20 13 9 14 13 4 14 -8 0 4 13 25 29 22 17 47 37 57 45 9 9 18 15 20 15 7 -5
47 14 47 21 0 5 7 7 15 4 8 -4 15 -1 15 5 0 6 3 10 8 10 4 -1 10 0 15 1 4 1
12 4 17 5 6 1 11 3 13 5 4 3 41 9 67 11 14 1 37 -3 53 -9 15 -7 27 -10 27 -7
0 2 15 -11 33 -30 27 -28 36 -32 51 -23 16 9 18 8 13 -5 -6 -15 24 -31 52 -27
8 1 18 -4 22 -12 5 -7 19 -13 33 -13 14 -1 22 3 20 7 -3 4 -1 8 5 8 5 0 11 -6
14 -12 3 -10 8 -10 21 1 14 12 16 12 10 -3 -4 -11 -1 -16 10 -16 9 0 16 6 17
13 0 6 4 3 9 -8 5 -11 9 -14 9 -7 1 8 6 10 13 6 16 -10 80 -5 92 7 12 11 46
12 46 1 0 -12 58 -14 65 -2 3 5 11 10 16 10 6 0 8 -4 5 -9 -8 -13 110 -3 159
14 25 8 52 15 60 15 7 0 16 8 18 17 4 17 5 17 6 1 1 -20 24 -15 55 11 11 9 16
10 12 4 -5 -9 -1 -13 12 -13 10 0 29 -9 42 -20 12 -11 27 -17 31 -14 5 3 9 2
9 -3 0 -4 18 -27 39 -50 21 -23 37 -44 34 -46 -9 -9 17 -47 32 -47 8 0 15 -7
15 -15 0 -8 7 -15 15 -15 8 0 15 -4 15 -10 0 -5 7 -10 15 -10 12 0 13 -4 6
-19 -6 -10 -8 -21 -4 -24 10 -10 12 -57 2 -57 -5 0 -8 -3 -7 -7 2 -14 -14 -43
-21 -38 -4 2 -7 -14 -6 -36 1 -21 -2 -39 -7 -39 -5 0 -6 -5 -3 -10 4 -6 11 -8
16 -5 5 3 6 0 3 -8 -3 -9 -13 -13 -25 -10 -10 3 -16 9 -13 14 3 5 -2 6 -10 3
-8 -3 -17 -16 -20 -30 -5 -17 -12 -23 -29 -21 -13 1 -21 -3 -20 -10 2 -6 -7
-15 -19 -18 -15 -5 -17 -9 -8 -15 10 -6 9 -19 -5 -59 -14 -44 -15 -54 -3 -68
9 -12 9 -15 1 -9 -7 4 -13 2 -13 -4 0 -6 6 -13 14 -16 8 -3 12 -13 9 -25 -4
-15 0 -22 16 -26 11 -3 21 -12 21 -19 0 -8 7 -14 16 -14 9 0 12 -5 8 -12 -5
-8 -2 -9 12 -3 10 4 33 8 49 9 17 0 35 4 42 9 6 4 15 2 18 -4 5 -7 12 -3 22
10 14 21 40 31 28 11 -8 -13 1 -13 28 1 18 9 20 9 10 -2 -18 -19 -16 -26 10
-34 52 -16 128 -20 201 -11 l49 6 -19 -22 c-17 -19 -17 -21 -2 -15 12 4 18 1
18 -9 0 -12 7 -14 30 -9 16 3 37 2 47 -4 10 -6 12 -11 6 -11 -7 0 -13 -4 -13
-10 0 -5 6 -7 14 -4 8 3 17 -3 20 -14 4 -11 14 -26 23 -34 15 -11 16 -11 10 4
-5 16 -4 16 16 5 12 -6 25 -16 29 -22 5 -6 8 -6 8 1 0 6 7 11 15 11 10 0 13
-6 9 -19 -3 -10 -2 -18 3 -17 4 1 17 -2 27 -6 13 -6 21 -4 24 3 2 7 8 12 14
12 7 0 7 -5 -1 -13 -8 -10 -7 -19 3 -33 8 -10 18 -16 21 -12 10 10 47 -11 40
-23 -4 -5 6 -9 20 -9 17 0 24 -4 19 -11 -4 -8 0 -9 15 -4 15 5 21 2 21 -10 0
-9 4 -14 9 -11 5 4 24 -6 41 -21 26 -21 33 -24 41 -12 7 11 9 10 9 -5 0 -12 5
-16 15 -12 13 5 14 2 4 -16 -10 -19 -9 -20 10 -15 12 3 19 1 16 -4 -3 -5 -1
-18 5 -29 9 -16 8 -22 -5 -26 -8 -3 -15 -10 -15 -15 0 -4 7 -6 15 -2 20 7 16
-17 -5 -34 -13 -10 -13 -14 3 -30 10 -10 17 -13 17 -5 0 7 -5 12 -12 12 -6 0
-8 3 -5 7 4 3 16 -2 26 -11 16 -14 17 -21 8 -31 -7 -7 -15 -11 -19 -9 -7 5 -4
-13 7 -39 4 -10 14 -16 21 -13 8 3 14 -1 14 -8 0 -8 -6 -17 -12 -19 -7 -3 -4
-6 7 -7 17 -2 16 -3 -5 -10 l-25 -8 23 -7 c16 -5 19 -11 13 -19 -6 -7 -6 -17
-1 -26 16 -25 11 -35 -6 -14 -14 18 -15 18 -4 -4 6 -12 8 -28 4 -35 -5 -6 1
-5 11 3 11 9 16 10 11 3 -4 -7 -3 -13 2 -13 6 0 13 -8 17 -17 5 -15 4 -16 -6
-5 -7 6 -19 12 -26 12 -10 0 -10 -6 3 -25 16 -24 15 -25 -4 -25 -28 0 -52 -10
-52 -22 0 -6 7 -7 16 -4 12 5 15 2 10 -10 -4 -9 -1 -23 5 -30 9 -12 9 -13 -3
-9 -9 4 -18 -1 -21 -9 -4 -11 -1 -16 10 -16 12 0 13 -3 4 -14 -9 -11 -8 -18 4
-30 17 -16 13 -20 -17 -17 -10 1 -18 -3 -18 -8 0 -6 -9 -11 -20 -11 -11 0 -24
-8 -27 -18 -4 -9 -17 -27 -30 -39 -13 -12 -24 -32 -26 -45 -2 -21 -15 -42 -44
-73 -7 -7 -9 -15 -6 -19 4 -3 -5 -19 -19 -34 -42 -45 -77 -103 -71 -119 6 -16
-24 -53 -44 -53 -7 0 -13 -4 -13 -10 0 -5 -7 -10 -15 -10 -8 0 -15 -4 -15 -10
0 -5 -8 -10 -17 -11 -15 0 -15 -2 2 -9 18 -8 17 -9 -7 -9 -16 -1 -28 4 -28 9
0 6 -10 9 -22 9 -17 -1 -19 -2 -5 -6 9 -2 17 -10 17 -17 0 -29 -45 -36 -226
-33 -160 2 -184 4 -202 20 -11 10 -29 18 -39 17 -38 -4 -64 0 -58 10 4 6 -7
13 -24 16 -17 4 -31 10 -31 13 0 4 -16 14 -35 21 -22 9 -34 19 -31 27 3 8 -2
13 -14 13 -10 0 -22 9 -25 20 -4 13 -18 23 -36 27 -18 3 -29 12 -29 22 0 12
-15 22 -47 32 -36 12 -47 20 -45 33 3 14 -1 16 -17 11 -26 -8 -71 4 -71 20 0
16 -35 25 -72 18 -23 -5 -27 -3 -22 11 5 13 1 15 -25 10 -21 -5 -31 -3 -31 6
0 8 -8 10 -25 6 -18 -5 -27 -2 -31 9 -4 10 -20 15 -50 15 -31 0 -44 4 -44 14
0 8 -7 16 -15 20 -8 3 -15 1 -15 -4 0 -6 -7 -10 -16 -10 -8 0 -12 5 -9 10 3 6
3 10 -2 11 -60 7 -93 7 -93 -1 0 -6 7 -10 17 -10 9 0 14 -2 11 -5 -10 -10 -58
7 -58 20 0 9 -14 12 -48 11 l-49 -2 4 33 c3 30 1 33 -22 33 -15 0 -33 7 -41
15 -9 8 -24 15 -35 15 -14 0 -19 7 -19 25 0 18 -5 25 -20 25 -11 0 -19 3 -19
8 3 19 -2 23 -15 13 -11 -9 -22 -8 -48 3 -18 8 -25 15 -16 15 9 1 20 6 23 12
4 6 1 10 -6 8 -37 -5 -58 2 -53 16 4 8 3 23 -1 33 -6 16 -7 16 -19 0 -14 -19
-32 -11 -37 17 -3 15 -12 20 -38 20 -19 0 -36 6 -38 13 -3 6 0 12 6 12 6 0 11
5 11 10 0 6 -14 10 -31 10 l-32 0 6 48 c2 26 3 39 0 29 -2 -9 -9 -17 -14 -17
-12 0 -39 67 -39 98 0 25 -1 25 -15 6 -13 -17 -14 -17 -9 -1 5 13 1 20 -15 24
-11 3 -21 12 -21 20 0 10 -6 12 -20 8 -16 -5 -20 -2 -20 14 0 14 -5 19 -15 15
-9 -4 -15 0 -15 10 0 9 -7 16 -15 16 -8 0 -15 5 -15 10 0 6 -13 10 -30 10 -23
0 -30 4 -30 20 0 15 -7 20 -25 20 -14 0 -25 3 -25 8 0 4 -16 12 -35 18 l-35
11 0 -648 0 -649 2910 0 2910 0 0 25 c0 14 -6 25 -12 25 -10 0 -10 2 0 9 8 4
12 17 10 27 -2 11 2 18 9 17 6 -1 14 11 18 27 4 17 10 28 14 26 4 -3 20 8 35
25 15 16 35 29 45 29 10 0 44 13 76 30 32 16 62 27 66 24 5 -3 9 -2 9 3 0 4
11 8 24 8 13 0 22 -3 19 -8 -2 -4 3 -7 11 -7 9 0 16 5 16 11 0 8 5 7 15 -1 9
-7 18 -10 22 -7 3 4 15 1 27 -6 23 -13 83 -19 194 -20 39 0 72 -3 72 -7 0 -4
11 -5 25 -2 28 5 117 -19 180 -48 22 -10 47 -20 55 -22 8 -2 23 -11 34 -20 10
-10 23 -15 27 -12 4 2 11 -1 14 -6 8 -13 56 -34 69 -31 5 1 17 -6 28 -16 11
-10 19 -13 18 -8 -7 31 2 34 38 12 20 -13 53 -29 72 -37 19 -7 44 -20 55 -27
15 -10 85 -13 307 -13 l288 0 0 983 0 984 -35 -1 c-19 -1 -35 -4 -35 -8 0 -5
-6 -8 -13 -8 -7 0 -32 -9 -55 -20 -22 -11 -47 -20 -55 -20 -8 0 -20 -7 -27
-15 -15 -18 -41 -20 -57 -4 -8 8 -13 8 -17 0 -8 -13 -112 -15 -120 -2 -3 5
-26 7 -51 5 -26 -1 -43 1 -40 7 4 5 -7 9 -23 9 -17 0 -37 9 -48 21 -22 25
-121 72 -134 64 -4 -3 -19 -1 -32 4 -20 8 -103 28 -148 35 -8 1 -32 10 -54 19
-21 9 -44 17 -50 17 -6 0 -4 5 4 11 12 9 10 10 -8 6 -17 -4 -21 -2 -13 7 7 8
4 15 -10 24 -11 7 -17 17 -14 21 7 12 -24 25 -52 22 -12 -1 -30 2 -40 8 -17
10 -17 10 2 11 11 1 15 4 8 6 -7 3 -9 12 -6 20 3 7 9 11 14 8 5 -3 9 2 9 10 0
9 5 16 12 16 6 0 9 3 5 6 -9 10 19 33 45 38 13 2 22 9 20 15 -1 6 8 11 20 12
13 0 35 2 50 3 14 1 25 -1 22 -5 -7 -12 58 -16 99 -7 21 5 46 15 54 23 8 8 23
15 33 15 25 0 51 11 46 19 -2 3 64 6 147 5 l152 0 125 -43 c69 -24 155 -59
192 -77 37 -19 70 -34 73 -34 3 0 5 308 5 685 l0 686 -112 -6 c-62 -3 -134 -7
-161 -10 -32 -3 -45 0 -41 7 5 7 -5 9 -29 6 -32 -3 -34 -2 -26 14 11 21 -10
34 -36 24 -12 -4 -13 -2 -2 14 6 11 15 20 20 20 4 0 6 4 3 9 -7 10 68 59 124
81 19 8 43 23 52 35 10 11 17 15 18 8 0 -7 -5 -13 -12 -13 -6 0 -8 -3 -5 -7 4
-3 16 2 28 13 19 17 19 19 4 30 -15 11 -15 13 2 22 10 6 22 10 26 10 15 0 21
12 6 12 -9 0 -5 8 11 23 14 12 21 19 15 16 -5 -3 -23 -9 -40 -12 -29 -6 -29
-6 5 10 35 15 35 15 11 25 -14 5 -32 6 -40 3 -9 -3 -3 6 12 20 20 18 23 25 12
25 -8 0 -18 6 -21 14 -3 8 -16 17 -30 20 -13 4 -24 11 -24 17 0 6 -5 7 -11 3
-7 -4 -7 1 1 16 15 27 5 38 -20 22 -11 -7 -20 -8 -20 -3 0 11 25 21 51 21 18
0 18 1 -1 20 -14 14 -28 18 -44 14 -26 -6 -44 10 -25 22 7 4 9 3 6 -3 -8 -13
72 -11 93 2 9 5 11 4 6 -3 -10 -16 7 -15 23 1 11 10 13 10 7 0 -5 -9 2 -13 26
-12 30 0 31 1 11 9 -13 5 -23 11 -23 13 0 6 51 0 57 -6 9 -10 -8 -47 -23 -47
-8 0 -14 -5 -14 -10 0 -6 6 -10 13 -8 6 1 27 -6 46 -16 22 -12 31 -13 25 -4
-6 11 -5 11 9 0 29 -25 37 -4 37 102 l0 103 -61 7 c-91 9 -159 7 -159 -4 0 -6
-10 -15 -23 -21 -21 -9 -20 -9 6 -6 15 3 27 0 27 -4 0 -9 -28 -13 -62 -10 -10
1 -18 -2 -18 -8 0 -5 17 -8 38 -6 20 2 29 1 19 -2 -9 -2 -15 -8 -12 -13 3 -5
-11 -4 -31 1 -20 6 -43 7 -52 3 -10 -4 -21 -9 -27 -9 -5 -1 -23 -7 -40 -14
-20 -8 -31 -9 -33 -2 -2 6 -8 11 -14 11 -6 0 -7 -7 -4 -16 5 -14 4 -15 -8 -5
-11 10 -17 7 -30 -11 -9 -12 -16 -17 -16 -11 0 6 -9 13 -20 16 -11 3 -20 1
-20 -5 0 -5 -6 -6 -12 -2 -18 12 -50 9 -75 -4 -13 -7 -23 -9 -23 -5 0 4 -5 2
-12 -5 -7 -7 -19 -12 -27 -12 -14 0 -14 1 -1 10 11 7 6 10 -20 10 -76 2 -152
10 -163 17 -7 5 -34 8 -60 9 -27 0 -52 5 -55 11 -9 12 -45 26 -38 14 3 -5 -1
-11 -9 -14 -10 -4 -12 -1 -8 10 5 12 1 14 -15 8 -14 -4 -22 -2 -22 5 0 6 -4 9
-9 5 -5 -3 -13 0 -16 6 -4 5 -13 8 -21 5 -8 -3 -14 -2 -14 3 0 8 -66 26 -82
23 -5 -1 -8 2 -8 7 0 6 -8 10 -17 9 -22 0 -228 47 -263 60 -29 11 -56 39 -47
49 9 9 -65 62 -86 63 -15 0 -13 5 11 25 17 14 37 25 46 25 9 0 19 6 22 14 4
12 12 13 31 5 14 -5 28 -7 31 -4 3 3 0 5 -7 5 -6 0 -34 20 -60 45 -85 80 -191
95 -292 41 -37 -20 -45 -30 -55 -69 -11 -43 -10 -46 12 -58 13 -7 24 -20 24
-30 0 -13 14 -22 47 -31 27 -8 49 -19 49 -26 3 -23 4 -24 19 -12 13 10 15 9
15 -9 0 -13 -6 -21 -17 -21 -14 -1 -12 -4 7 -15 23 -13 15 -21 -14 -16 -6 1
-19 -2 -30 -7 -57 -27 -95 -42 -105 -42 -6 0 -11 -4 -11 -8 0 -4 -8 -8 -17 -9
-10 0 -34 -3 -53 -6 -19 -3 -42 -6 -50 -7 -10 -1 -9 -4 5 -10 15 -6 8 -9 -27
-9 -54 -1 -77 -21 -26 -22 18 0 42 -4 53 -9 14 -6 4 -8 -36 -8 -31 0 -62 -3
-69 -7 -9 -5 -11 -4 -6 3 5 8 -1 12 -18 12 -14 0 -28 -5 -31 -10 -4 -6 -29
-10 -55 -9 -45 2 -62 18 -22 20 19 1 -23 16 -48 18 -13 1 -13 0 0 -9 8 -5 12
-12 8 -15 -11 -12 13 -64 27 -59 7 3 16 1 20 -5 3 -7 -3 -11 -17 -12 -13 0
-17 -3 -10 -6 10 -4 9 -8 -3 -17 -13 -9 15 -11 127 -9 79 1 166 -2 193 -8 55
-10 141 -18 255 -23 41 -2 93 -8 115 -14 22 -5 47 -10 55 -11 8 0 99 -3 202
-6 103 -3 199 -10 213 -15 15 -6 31 -8 36 -4 5 3 9 -1 9 -8 0 -11 2 -10 9 0 7
11 9 11 13 0 3 -7 23 -19 44 -27 82 -29 222 -131 216 -157 -1 -7 7 -15 18 -19
11 -3 20 -13 20 -22 0 -15 -2 -14 -47 4 -6 2 -11 -2 -10 -9 2 -54 -4 -68 -27
-68 -13 0 -26 -4 -28 -10 -2 -6 -18 -6 -43 0 -50 12 -118 13 -131 2 -12 -12
-78 -29 -139 -38 -27 -3 -55 -10 -61 -15 -6 -5 -38 -12 -70 -15 -32 -3 -71
-12 -85 -19 -15 -7 -33 -9 -41 -4 -8 4 -20 4 -27 0 -14 -9 -103 -2 -111 8 -3
4 -16 8 -30 9 -126 8 -202 -11 -257 -64 -27 -27 -43 -34 -73 -34 -46 0 -72 9
-64 21 3 5 -4 9 -14 9 -11 0 -27 11 -36 25 -16 24 -35 29 -47 12 -3 -5 -12 -2
-20 5 -8 8 -22 17 -32 21 -10 4 -15 11 -12 17 3 5 1 10 -4 10 -17 0 -51 39
-41 45 10 6 -11 35 -27 35 -21 1 -82 37 -76 45 5 4 2 5 -5 1 -7 -5 -21 -2 -30
6 -35 27 -64 39 -84 32 -11 -3 -18 -2 -15 3 3 5 -6 8 -21 8 -15 -1 -32 3 -38
7 -16 11 -24 -13 -31 -87 -3 -33 -11 -72 -19 -86 -13 -26 -12 -28 29 -60 61
-48 149 -142 174 -187 21 -38 21 -40 5 -73 -15 -30 -22 -34 -60 -37 -25 -2
-50 2 -59 9 -10 9 -17 9 -21 2 -8 -12 -44 -14 -36 -1 3 4 -4 8 -15 8 -11 0
-24 6 -28 13 -4 8 -18 16 -31 19 -12 4 -20 2 -16 -3 3 -5 -2 -9 -11 -9 -9 0
-13 5 -10 10 8 12 -1 13 -43 1 -24 -7 -32 -6 -32 3 0 7 -7 13 -16 13 -11 0
-14 -7 -9 -24 l6 -24 -21 21 c-20 20 -46 28 -35 10 3 -5 -8 -7 -27 -5 -18 2
-35 -1 -39 -6 -3 -6 -18 -12 -33 -12 -14 -1 -26 -5 -26 -9 0 -7 -34 -3 -49 6
-5 4 -11 1 -13 -5 -2 -5 -11 -7 -21 -3 -10 3 -16 13 -13 20 3 8 1 14 -4 14 -6
0 -10 -5 -10 -11 0 -6 -5 -7 -12 -2 -11 7 -36 9 -145 14 -13 1 -20 6 -17 14 4
9 -7 12 -38 11 -47 -1 -40 8 -124 -158 -11 -21 -26 -37 -34 -37 -10 0 -11 2
-2 6 24 9 12 23 -15 17 -25 -7 -27 -6 -14 10 12 14 12 16 -3 10 -21 -8 -21 5
2 22 15 11 12 12 -22 7 -30 -5 -37 -3 -31 7 5 8 23 11 57 8 27 -3 44 -2 37 2
-8 6 -6 9 7 13 10 3 -6 4 -36 2 -30 -1 -66 -6 -80 -9 -14 -4 -39 -2 -55 5 -23
9 -26 13 -12 16 9 3 15 8 12 13 -3 5 -13 6 -22 3 -10 -4 -14 -2 -10 4 4 6 -3
13 -15 16 -12 4 -19 9 -16 12 3 4 20 -1 37 -9 16 -9 40 -16 52 -16 15 0 19 -5
15 -15 -7 -19 3 -19 27 -1 18 14 18 14 0 19 -10 3 9 5 42 6 67 2 113 26 102
55 -4 9 -1 16 6 16 7 0 25 35 41 78 32 84 60 133 97 172 25 26 33 28 109 34
25 2 61 7 80 10 58 11 255 7 255 -5 0 -1 16 -3 36 -4 19 -1 41 -5 47 -9 7 -4
17 -4 24 0 6 4 8 3 5 -3 -4 -6 0 -13 8 -16 20 -8 55 39 56 77 3 98 9 138 29
206 12 41 27 81 32 87 7 9 5 15 -6 19 -9 4 -20 4 -23 0 -3 -3 -13 0 -21 7 -13
9 -14 9 -8 0 5 -10 -1 -11 -26 -6 -18 4 -44 7 -58 8 -14 0 -28 4 -31 9 -4 5
-19 9 -34 9 -14 0 -29 6 -32 13 -3 8 -9 11 -14 8 -5 -3 -9 0 -9 6 0 6 -5 8
-12 4 -18 -11 -198 -5 -234 8 -26 9 -36 9 -48 -1 -11 -9 -16 -10 -16 -2 0 6
-11 11 -25 11 -14 0 -25 4 -25 10 0 5 -3 9 -7 8 -5 -1 -23 2 -41 6 -27 6 -31
10 -21 22 11 13 5 14 -41 9 -30 -4 -58 -9 -64 -12 -5 -3 -6 -1 -2 5 3 6 1 12
-6 15 -7 2 -5 3 4 2 9 -2 36 6 59 18 36 18 39 22 23 28 -39 15 -103 10 -124
-11 -11 -11 -26 -20 -34 -20 -23 0 -68 -41 -61 -57 3 -10 1 -13 -8 -10 -7 2
-28 -11 -47 -29 -23 -23 -40 -32 -50 -28 -31 14 -81 11 -116 -6 l-36 -19 18
21 c19 20 19 20 -26 13 -25 -3 -52 -7 -60 -8 -8 -2 -19 -5 -25 -8 -5 -4 -28
-10 -50 -14 -36 -6 -38 -8 -22 -20 18 -13 18 -13 -1 -19 -11 -4 -24 -6 -28 -5
-5 1 -22 1 -38 0 -29 -1 -29 -2 -10 -17 19 -15 18 -15 -4 -11 -12 3 -20 2 -17
-3 3 -4 -9 -13 -26 -20 -18 -8 -29 -19 -27 -29 3 -13 14 -15 58 -12 55 4 141
3 192 -2 23 -2 25 -5 16 -22 -6 -10 -11 -31 -10 -45 0 -22 -7 -30 -37 -43 -21
-10 -56 -17 -79 -17 -23 0 -42 -4 -42 -10 0 -5 -7 -10 -15 -10 -8 0 -15 -4
-15 -8 0 -5 -16 -16 -36 -25 -19 -10 -32 -21 -29 -27 3 -5 -11 -13 -31 -19
-43 -12 -142 -3 -122 11 10 8 10 11 0 15 -22 9 -42 34 -35 46 4 6 0 8 -10 4
-11 -4 -17 -1 -17 8 0 8 -6 15 -12 15 -10 0 -10 3 0 9 10 6 7 10 -13 15 -14 4
-30 4 -35 1 -6 -4 -10 -1 -10 4 0 6 5 11 11 11 15 0 -11 24 -36 34 -38 14
-105 23 -111 15 -3 -5 -15 -9 -27 -8 -21 0 -21 1 -2 9 24 10 20 12 -87 38 -86
22 -123 46 -85 56 12 3 38 6 57 7 19 0 46 5 60 10 18 6 8 8 -37 6 -46 -2 -64
0 -68 11 -3 8 -12 11 -24 7 -18 -5 -19 -2 -16 32 2 21 16 73 30 116 31 90 34
147 10 203 -35 84 -89 116 -175 105 -37 -4 -64 -2 -81 6 -14 7 -60 18 -103 23
-76 11 -78 11 -114 -16 -29 -22 -33 -23 -18 -6 19 22 19 22 -5 23 -13 1 -45 1
-71 -1 -45 -2 -79 15 -78 37 0 4 -3 8 -7 9 -31 3 -41 17 -33 45 5 16 9 32 9
34 1 3 7 20 15 38 7 19 17 43 20 55 8 23 21 28 31 12 22 -36 109 38 135 115
14 42 20 49 39 47 24 -4 104 74 122 118 13 32 8 101 -8 118 -19 20 -16 87 4
103 9 8 14 9 10 3 -9 -15 15 -24 61 -24 22 0 44 -8 58 -21 17 -16 28 -19 46
-13 12 4 25 8 28 9 3 0 11 4 19 9 8 5 17 4 22 -5 8 -11 12 -10 25 6 8 11 20
20 27 20 7 0 12 5 13 10 0 6 4 17 7 25 4 8 13 33 20 55 12 34 18 40 46 43 18
2 38 -1 44 -6 18 -14 87 18 87 40 0 10 7 18 15 18 8 0 15 7 15 16 0 8 5 12 10
9 6 -4 8 -10 5 -15 -3 -4 1 -13 9 -19 8 -6 24 -34 35 -62 12 -27 28 -52 36
-55 7 -3 18 -19 24 -36 10 -28 13 -30 51 -25 31 3 47 -1 67 -17 15 -11 35 -19
44 -18 10 2 20 -5 24 -18 3 -11 12 -20 18 -20 7 0 27 -16 45 -34 28 -30 39
-35 73 -33 30 1 43 7 51 22 6 11 17 24 24 28 8 4 14 20 14 35 0 54 39 72 47
22 4 -30 33 -63 33 -40 1 8 8 2 16 -13 14 -27 17 -28 33 -13 21 19 38 20 44 4
2 -7 7 -11 10 -8 4 4 16 98 17 143 0 11 8 17 24 17 27 0 32 -17 35 -110 2 -50
6 -59 44 -98 41 -40 44 -42 75 -31 25 8 36 8 48 -1 12 -11 19 -9 39 10 32 30
32 69 2 118 -27 42 -41 74 -39 85 1 4 -3 7 -8 7 -6 0 -10 11 -10 25 0 14 4 25
10 25 5 0 7 6 4 14 -3 8 -1 17 5 20 6 4 8 13 5 20 -3 8 -1 17 5 21 6 3 11 14
11 23 0 10 9 23 19 29 25 16 55 78 48 98 -5 10 4 16 28 21 25 4 35 11 35 25 0
28 78 26 115 -3 26 -20 30 -21 104 -8 42 7 101 12 131 11 32 -1 83 7 123 19
37 12 76 20 85 19 31 -3 65 1 59 7 -12 12 -77 22 -77 12 0 -13 -100 -5 -109 9
-16 25 -166 51 -174 30 -4 -7 -6 -6 -6 4 -1 13 12 15 78 15 44 -1 83 -5 88
-10 5 -5 3 -6 -4 -2 -7 4 -13 2 -13 -3 0 -6 15 -11 34 -11 19 0 36 -4 38 -8 2
-5 17 -12 33 -16 29 -6 30 -6 6 7 -23 14 -22 14 24 19 81 10 68 23 -23 24 -48
1 -105 6 -127 12 l-40 10 40 2 c75 4 350 -2 389 -9 22 -3 41 -12 44 -19 4 -12
-19 -15 -93 -13 -60 1 -155 -12 -155 -21 0 -5 9 -6 21 -3 12 4 91 7 177 7 92
0 149 4 137 8 -17 8 -16 9 8 9 16 1 26 -3 22 -9 -3 -5 -1 -10 5 -10 6 0 9 -4
5 -9 -11 -19 33 -24 188 -22 74 1 98 4 95 14 -3 6 -29 15 -59 18 l-54 6 46 1
c53 2 292 -15 328 -24 26 -6 19 -19 -14 -27 -11 -3 44 -5 122 -6 85 -1 144 3
148 9 3 6 -2 10 -12 11 -10 0 -5 4 12 10 16 4 40 6 54 2 17 -4 22 -2 17 6 -5
7 1 11 16 11 18 0 20 -2 8 -10 -26 -16 84 -12 136 6 31 11 64 14 98 10 80 -9
144 -7 266 8 25 3 37 3 28 -2 -19 -8 133 -7 172 1 14 3 48 8 75 11 l50 5 -40
-13 c-22 -7 -43 -11 -47 -9 -4 2 -25 -8 -47 -22 -23 -14 -49 -25 -59 -25 -9 0
-50 -9 -90 -20 -39 -11 -74 -20 -78 -20 -3 0 4 15 15 34 27 43 27 43 -9 38
-31 -4 -38 -20 -19 -39 15 -15 -3 -24 -59 -29 -115 -9 -156 -23 -119 -37 6 -3
-6 -4 -28 -3 -22 1 -51 8 -65 16 -33 19 -157 30 -192 18 -34 -12 -34 -15 -5
-39 22 -18 22 -18 -43 -19 -50 0 -61 3 -52 12 18 18 15 26 -18 43 -44 23 -102
19 -135 -9 -27 -23 -27 -24 -6 -31 24 -7 27 -20 9 -29 -7 -4 -2 -4 12 0 14 3
36 8 49 11 16 4 22 2 17 -6 -4 -6 -19 -11 -33 -11 -20 0 -24 -4 -20 -20 3 -12
0 -20 -8 -20 -20 0 -17 -97 4 -106 9 -4 20 -6 24 -5 5 1 6 -3 2 -8 -7 -12 -37
-2 -48 16 -4 7 -14 13 -21 13 -8 0 -20 9 -27 19 -19 27 -73 18 -66 -10 4 -15
2 -17 -11 -10 -19 11 -61 -3 -81 -27 -13 -16 -13 -16 -7 2 4 13 0 25 -14 38
-21 20 -27 48 -10 48 7 0 7 6 1 18 -5 10 -6 24 -2 31 5 7 7 31 6 52 -2 35 2
42 26 54 15 8 39 15 54 15 14 0 25 4 25 9 0 4 -19 8 -42 9 -66 0 -70 1 -62 14
5 8 2 9 -12 3 -10 -5 -50 -11 -89 -14 -66 -6 -68 -7 -42 -19 16 -6 26 -16 23
-21 -3 -5 0 -11 8 -14 10 -4 13 -17 10 -46 -3 -22 0 -42 6 -46 8 -5 7 -11 -1
-22 -10 -12 -10 -16 1 -23 11 -7 10 -17 -6 -57 -16 -38 -18 -56 -11 -85 5 -21
13 -38 19 -38 5 0 6 -4 3 -10 -3 -5 -1 -10 5 -10 6 0 10 -8 8 -17 -2 -13 5
-19 25 -21 15 -2 27 -9 27 -16 0 -17 38 -66 51 -66 5 0 14 11 21 25 12 27 36
28 62 2 27 -27 64 -32 102 -14 19 9 34 21 34 26 0 5 23 15 51 22 43 11 51 17
56 41 6 28 6 28 20 8 11 -15 21 -19 36 -14 27 8 127 67 127 74 0 9 -75 54 -92
55 -10 1 -21 5 -25 10 -5 4 0 5 10 2 9 -4 17 -3 17 2 0 13 -33 19 -55 10 -12
-4 -14 -8 -6 -8 8 -1 12 -4 8 -7 -3 -3 -14 -1 -24 5 -10 6 -12 11 -5 11 6 0
12 6 12 14 0 7 14 27 30 45 17 17 28 36 25 41 -4 6 16 10 49 10 44 0 54 -3 50
-14 -7 -18 35 -33 46 -16 5 8 9 6 12 -7 3 -10 6 -22 8 -28 8 -30 42 -36 160
-33 109 4 120 3 120 -13 0 -21 65 -63 82 -53 7 4 10 4 6 -1 -4 -4 -3 -14 2
-20 8 -9 -2 -11 -41 -7 -34 3 -50 1 -46 -6 5 -6 -5 -7 -30 -1 -21 4 -39 6 -42
3 -2 -2 0 -4 6 -4 6 0 23 -25 38 -55 26 -54 27 -55 68 -55 119 0 333 -42 442
-86 50 -21 70 -24 120 -19 117 11 290 37 307 46 11 6 33 4 60 -5 24 -8 58 -17
76 -21 l32 -7 0 69 0 69 -71 -8 c-45 -5 -81 -16 -96 -28 -13 -10 -31 -16 -39
-13 -8 3 -22 -1 -31 -8 -15 -13 -15 -12 -4 8 6 13 22 25 36 29 35 9 54 35 57
79 l3 40 72 3 71 3 1 99 1 100 -32 -7 c-18 -3 -64 -16 -102 -29 -84 -29 -84
-29 -61 -4 19 21 98 53 157 64 l37 7 1 1114 0 1115 -1186 0 c-1053 0 -1185 -2
-1174 -15 10 -12 10 -15 -3 -15 -8 0 -18 6 -20 13 -3 7 -6 5 -6 -5 -1 -10 2
-19 7 -19 4 -1 17 -3 30 -4 12 -1 31 -10 42 -20 10 -9 24 -14 29 -10 6 3 11 1
11 -4 0 -6 10 -11 23 -11 41 0 57 -3 57 -12 0 -6 35 -8 80 -5 44 3 83 1 86 -4
3 -5 16 -9 29 -9 13 0 40 -9 59 -21 19 -11 40 -18 45 -15 5 4 12 2 16 -4 4 -6
11 -8 16 -5 5 4 9 1 9 -4 0 -6 17 -11 39 -11 22 0 48 -8 62 -19 13 -10 49 -21
80 -25 30 -4 68 -14 83 -21 16 -8 40 -15 55 -16 14 0 48 -11 75 -24 28 -12 56
-21 63 -18 7 3 13 0 13 -7 0 -6 5 -8 10 -5 6 4 25 -1 43 -10 17 -9 54 -18 82
-21 30 -2 52 -10 58 -19 4 -8 15 -15 22 -15 8 0 15 -5 15 -11 0 -5 5 -7 10 -4
6 4 16 3 23 -2 7 -5 30 -11 51 -12 22 -2 45 -9 52 -16 7 -7 33 -16 58 -19 25
-4 48 -11 51 -17 4 -5 17 -9 31 -9 14 0 32 -7 40 -15 9 -8 33 -15 54 -15 26 0
42 -6 48 -17 6 -10 16 -14 26 -10 9 4 16 2 16 -4 0 -5 11 -7 26 -3 17 4 29 2
34 -6 4 -7 21 -13 36 -12 87 1 124 5 130 13 3 5 0 9 -7 9 -22 0 12 30 45 39
30 9 30 10 8 17 -17 5 -22 13 -20 31 2 13 6 23 11 23 4 0 27 0 52 0 27 0 45
-5 45 -11 0 -7 8 -18 18 -25 21 -15 8 -32 -27 -36 -13 -2 -35 -14 -48 -27 -15
-14 -32 -21 -43 -18 -11 3 -18 0 -17 -6 1 -6 -13 -16 -32 -22 -34 -12 -31 -27
5 -20 10 2 27 4 37 4 10 1 16 5 12 10 -3 5 0 13 6 17 8 4 9 3 5 -4 -4 -7 -1
-12 9 -12 24 0 12 -24 -13 -28 -12 -2 -22 -8 -22 -13 0 -5 6 -9 13 -8 17 4
130 -33 138 -45 4 -5 14 -6 23 -3 10 4 19 1 22 -8 4 -9 19 -15 35 -15 16 0 43
0 61 0 29 1 31 -1 16 -17 -8 -10 -13 -23 -11 -30 2 -6 -5 -14 -16 -18 -12 -3
-34 -20 -51 -36 -16 -17 -30 -28 -30 -24 0 3 -10 -3 -22 -15 -12 -11 -30 -20
-39 -20 -10 0 -21 -4 -24 -10 -3 -5 -1 -10 6 -10 7 0 4 -6 -7 -14 -19 -14 -18
-15 5 -23 20 -8 16 -11 -35 -22 -76 -17 -114 -29 -93 -30 25 -1 33 -32 11 -38
-10 -2 -23 -13 -30 -23 -9 -16 -8 -19 6 -18 9 0 65 -1 125 -2 l107 -2 -41 -33
c-35 -27 -48 -32 -86 -29 -24 1 -50 8 -58 14 -9 8 -17 7 -28 -5 -9 -8 -22 -15
-31 -15 -15 0 -40 -21 -54 -46 -5 -9 -26 -18 -48 -21 -57 -6 -100 -29 -131
-68 -19 -24 -33 -33 -45 -29 -10 3 -23 2 -30 -3 -7 -4 -19 -8 -25 -9 -7 -1
-32 -18 -55 -38 -41 -36 -58 -44 -58 -28 0 12 -70 40 -120 48 -25 4 -57 15
-71 25 -23 16 -28 17 -45 4 -10 -8 -29 -15 -40 -15 -12 0 -33 -6 -47 -13 l-25
-13 41 -11 c23 -6 59 -8 81 -6 27 4 37 2 34 -7 -2 -6 -7 -10 -11 -8 -7 3 -33
-30 -58 -76 -9 -17 -24 -35 -35 -40 -10 -6 -21 -13 -24 -16 -3 -3 -11 -6 -18
-8 -10 -2 -11 4 -6 20 6 20 2 18 -25 -10 -18 -18 -29 -37 -26 -41 3 -5 -11
-19 -30 -31 -19 -12 -35 -24 -35 -26 0 -6 38 14 72 38 23 16 30 17 47 6 16
-10 23 -9 38 4 14 12 33 15 83 12 61 -4 120 9 120 26 0 11 -68 22 -82 14 -7
-5 -9 -2 -6 7 4 11 -3 14 -36 12 -22 -1 -32 0 -22 4 15 4 16 7 5 15 -10 7 -3
7 21 3 19 -4 43 -8 53 -8 9 -1 17 -5 17 -9 0 -4 11 -8 24 -8 14 0 28 -5 31
-10 4 -6 16 -8 28 -5 20 5 20 4 -2 -8 -13 -8 -37 -32 -53 -53 -21 -29 -28 -33
-28 -18 -1 19 -1 19 -12 -1 -6 -10 -14 -33 -18 -50 -5 -22 -12 -30 -26 -28
-16 1 -17 0 -3 -9 13 -9 11 -15 -15 -43 -29 -31 -32 -32 -49 -17 -16 14 -19
14 -35 -2 -16 -16 -16 -17 1 -10 13 5 16 2 11 -10 -7 -19 26 -22 57 -6 14 8
19 7 19 -1 0 -6 7 -9 15 -5 8 3 15 1 15 -3 0 -5 3 -16 6 -24 3 -10 -8 -21 -38
-35 -72 -35 -150 -63 -143 -52 8 13 -1 13 -26 0 -27 -15 -42 -4 -28 21 6 11 7
28 3 37 -9 20 -11 28 -13 44 0 6 -4 9 -7 5 -4 -3 -16 8 -28 25 -23 35 -42 41
-86 28 -19 -5 -30 -5 -30 1 0 6 -5 7 -11 4 -10 -7 -79 21 -79 32 0 3 11 2 24
-1 26 -6 46 8 24 17 -10 4 -10 6 0 6 7 1 10 6 7 11 -11 18 5 31 25 20 24 -13
70 -3 70 15 0 7 6 16 13 19 6 3 2 3 -9 1 -26 -7 -70 12 -71 28 0 7 -4 20 -8
29 -5 13 -2 15 15 11 11 -3 40 3 63 14 23 11 55 24 72 29 21 7 32 18 39 42 11
38 0 55 -18 29 -7 -9 -17 -17 -21 -17 -4 0 -18 -11 -31 -25 -16 -17 -34 -25
-57 -25 -18 0 -38 -5 -44 -11 -9 -9 -16 -4 -30 18 -10 16 -24 28 -30 26 -7 -3
-13 -1 -13 4 0 4 -13 9 -30 10 -20 1 -35 -5 -47 -20 -17 -21 -60 -27 -47 -6 3
5 10 6 16 3 7 -4 8 -2 4 4 -4 7 -14 12 -22 12 -8 0 -13 3 -12 8 4 13 -47 81
-65 86 -10 2 -14 0 -10 -7 4 -6 0 -8 -9 -5 -19 8 -51 -45 -43 -71 4 -13 -2
-26 -16 -39 -20 -19 -19 -49 2 -37 5 4 9 2 9 -4 0 -5 -4 -13 -10 -16 -6 -3
-10 -14 -10 -23 -1 -35 -27 -53 -91 -62 -52 -8 -65 -6 -72 5 -9 17 -54 20 -76
6 -10 -6 -16 -36 -20 -90 -6 -76 -5 -81 18 -98 13 -10 27 -17 31 -16 3 1 11
-7 18 -17 10 -16 8 -18 -11 -16 -13 1 -28 5 -34 9 -7 4 -25 5 -40 2 l-28 -6
30 15 30 15 -29 -4 c-15 -2 -34 -12 -42 -22 -13 -17 -14 -17 -7 1 4 13 3 17
-5 12 -7 -4 -19 0 -28 8 -16 16 -39 22 -31 9 3 -5 -11 -9 -32 -10 -34 -1 -35
-1 -11 10 14 5 29 11 34 11 5 1 11 7 14 15 4 11 -2 12 -24 7 -28 -7 -28 -7
-10 13 18 19 20 20 31 4 11 -15 15 -15 29 -4 9 7 16 19 16 27 0 20 -53 21 -72
2 -10 -10 -27 -18 -37 -18 -18 0 -36 -25 -32 -44 1 -4 -4 -14 -10 -22 -9 -11
-8 -14 5 -14 9 0 16 -4 16 -10 0 -5 -6 -10 -14 -10 -8 0 -30 -13 -48 -30 -33
-31 -52 -37 -63 -20 -3 5 -12 7 -21 3 -10 -4 -11 -9 -4 -18 7 -8 5 -12 -5 -12
-8 0 -12 4 -10 8 9 13 -20 28 -35 19 -19 -12 -33 -13 -26 -1 4 5 -8 4 -24 -2
-25 -9 -33 -9 -39 1 -5 8 -11 12 -14 10 -3 -1 -15 10 -27 25 -18 23 -20 30 -9
43 11 13 7 15 -29 11 -23 -2 -44 -6 -48 -9 -7 -8 -62 8 -116 32 -25 11 -64 19
-93 19 -37 0 -45 -3 -30 -9 16 -7 17 -9 3 -9 -9 -1 -21 5 -25 13 -4 7 -18 17
-30 20 -27 9 -30 -9 -8 -38 24 -32 17 -37 -22 -15 -21 12 -29 14 -19 5 26 -21
14 -31 -16 -15 -12 7 -29 12 -36 11 -7 -2 -11 1 -10 5 2 4 -1 9 -7 11 -5 2
-18 11 -27 19 -12 11 -18 12 -18 4 0 -9 -5 -9 -20 -1 -16 8 -20 8 -20 -4 0
-27 -21 -28 -45 -2 -25 27 -41 35 -29 14 4 -7 -2 -4 -14 6 -22 19 -31 43 -12
31 6 -3 10 -1 10 5 0 7 -6 10 -14 7 -13 -5 -63 41 -59 54 1 3 -7 10 -17 17
-16 10 -18 9 -13 -5 4 -11 2 -14 -8 -11 -8 3 -13 11 -12 17 2 6 -4 11 -12 11
-8 0 -30 7 -49 17 -29 14 -38 14 -51 3 -12 -10 -13 -15 -4 -20 7 -5 -1 -16
-24 -32 -28 -19 -33 -27 -26 -41 12 -20 -1 -23 -20 -4 -12 10 -13 8 -7 -8 5
-17 4 -18 -6 -4 -7 9 -19 14 -25 12 -7 -3 -13 0 -13 5 0 6 6 12 13 15 6 3 -13
3 -43 2 -40 -2 -49 -1 -32 6 12 5 25 17 29 26 4 10 13 22 20 26 7 5 11 12 8
17 -12 19 14 19 38 0 16 -13 28 -16 32 -10 3 5 3 10 -1 10 -3 0 -1 7 6 15 7 8
23 15 35 15 21 0 22 2 12 25 -8 17 -25 29 -52 36 -22 6 -47 17 -55 23 -34 29
-41 27 -88 -21 -50 -53 -122 -102 -122 -84 0 6 -5 11 -10 11 -6 0 -10 -6 -8
-12 4 -20 -19 -55 -52 -78 l-31 -22 22 41 c17 33 19 44 9 56 -6 8 -9 19 -5 26
6 8 9 8 15 0 8 -15 37 -4 44 16 4 9 2 21 -3 27 -11 13 9 46 28 46 8 0 7 9 -4
29 -11 23 -19 28 -36 24 -14 -4 -20 -2 -16 4 17 27 -36 -3 -60 -34 -19 -24
-31 -32 -45 -27 -10 3 -25 0 -33 -6 -17 -14 -21 -35 -5 -25 25 16 5 -17 -45
-72 -30 -34 -55 -64 -55 -68 0 -10 -44 -51 -63 -58 -11 -4 -14 -2 -11 8 10 24
-5 36 -27 24 -29 -15 -99 -79 -99 -90 0 -5 14 -2 31 6 17 9 33 14 36 11 3 -3
-6 -11 -20 -17 -15 -7 -24 -16 -20 -22 3 -6 1 -7 -4 -4 -6 4 -21 -1 -34 -11
-13 -10 -41 -19 -63 -19 -21 -1 -41 -5 -45 -10 -3 -4 -24 -9 -46 -11 -37 -3
-42 0 -116 77 -42 44 -71 82 -65 84 6 2 -1 18 -17 36 -15 18 -27 37 -27 43 0
6 -7 8 -15 4 -8 -3 -15 -1 -15 5 0 6 -6 9 -12 6 -7 -2 -21 0 -30 4 -15 8 -15
6 -1 -21 8 -17 19 -28 24 -25 5 4 9 8 9 11 0 3 -5 2 -12 -2 -7 -4 -8 -3 -4 5
9 14 67 -25 74 -50 3 -11 1 -10 -9 1 -8 9 -23 23 -33 30 -18 14 -19 13 -13 -2
4 -12 -1 -21 -15 -29 -15 -8 -18 -8 -14 0 4 6 0 12 -8 12 -9 1 -21 2 -27 3
-14 1 -59 46 -59 58 0 5 -9 21 -20 35 -11 14 -20 21 -20 16 0 -5 5 -14 12 -21
9 -9 9 -12 0 -12 -7 0 -4 -14 9 -37 l21 -38 -22 25 c-12 14 -24 23 -27 22 -3
-2 -8 0 -11 4 -4 4 -1 4 6 0 17 -10 5 43 -14 61 -20 21 -29 15 -10 -6 17 -19
17 -19 -5 -14 -18 5 -21 3 -16 -10 11 -30 -10 -18 -23 13 -7 16 -16 28 -20 25
-5 -3 -11 1 -13 7 -3 8 -6 5 -6 -6 -1 -10 9 -35 21 -55 l22 -36 -22 19 c-12
11 -22 14 -22 8 0 -6 3 -12 8 -14 4 -2 20 -17 35 -35 l29 -31 -25 2 c-14 0
-23 4 -20 9 2 4 -2 7 -10 7 -8 0 -29 13 -46 29 -17 16 -31 25 -31 19 0 -5 -6
-8 -12 -5 -7 2 -12 9 -11 14 1 6 -9 9 -23 7 -26 -2 -44 20 -44 55 0 28 15 34
31 13 13 -16 12 -16 -6 -2 -17 12 -16 10 3 -11 21 -25 52 -35 52 -17 0 4 7 8
15 8 8 0 15 -4 15 -8 0 -5 7 -17 15 -28 14 -18 15 -18 11 6 -3 14 -5 28 -5 32
-1 3 -14 5 -31 4 -23 -2 -27 1 -18 11 6 8 17 12 25 9 7 -3 13 1 13 9 0 8 6 14
13 13 8 -2 11 7 10 26 l-2 29 25 -24 c13 -12 37 -24 53 -25 16 -1 35 -5 41 -9
7 -4 16 -1 21 6 7 11 9 10 9 -3 0 -10 5 -18 10 -18 6 0 10 -11 10 -24 0 -14 4
-27 9 -30 5 -3 8 2 7 12 -1 11 7 18 23 20 14 2 21 0 17 -7 -4 -6 -1 -9 7 -6
21 9 8 64 -19 82 -13 8 -30 28 -39 44 -8 16 -22 43 -31 59 -8 17 -23 30 -33
30 -10 0 -31 16 -47 35 -32 39 -44 44 -44 18 0 -14 -2 -14 -20 2 -11 10 -20
25 -20 33 0 23 -121 135 -134 122 -16 -16 -24 -12 -41 19 -8 16 -20 35 -27 43
-7 7 -20 26 -28 42 -8 16 -28 41 -44 55 -16 14 -45 43 -66 64 -20 20 -42 37
-47 37 -12 0 -47 53 -76 115 -26 57 -85 115 -117 115 -22 0 -31 -12 -70 -95
-25 -52 -48 -95 -51 -95 -6 0 -35 21 -111 79 -33 26 -54 19 -69 -24 -7 -18
-23 -39 -36 -46 -12 -7 -30 -23 -38 -36 -9 -13 -20 -21 -25 -18 -10 6 -60 -41
-60 -57 0 -12 -52 -68 -74 -80 -11 -6 -40 -12 -65 -14 -25 -2 -70 -6 -98 -8
-29 -3 -55 -1 -58 4 -3 5 -12 7 -20 3 -27 -10 -279 124 -336 178 -37 36 -59
49 -81 49 -16 0 -75 21 -131 46 -140 63 -147 66 -147 76 0 5 10 6 23 2 74 -24
158 -40 164 -31 3 5 23 7 44 4 22 -3 39 -1 39 4 0 5 7 9 15 9 21 0 19 -28 -2
-33 -14 -4 -12 -5 5 -6 12 0 22 4 22 9 0 15 36 12 49 -4 19 -22 69 -25 87 -5
20 22 106 24 146 3 15 -8 37 -14 49 -14 20 0 20 1 6 23 -14 21 -13 24 1 34 19
11 91 5 109 -9 9 -7 10 -2 3 23 -7 22 -6 35 0 39 6 4 8 14 4 23 -5 13 0 17 19
17 34 0 93 26 100 45 5 10 20 15 51 15 25 0 47 4 50 9 9 14 97 -6 159 -37 41
-20 68 -27 94 -24 19 3 31 7 25 11 -13 8 6 25 33 29 57 9 206 6 250 -5 28 -7
52 -13 54 -13 2 0 0 11 -3 25 -6 22 -3 25 19 25 14 0 25 -5 25 -11 0 -7 12
-10 30 -7 21 3 35 -1 47 -14 9 -10 26 -18 39 -18 17 0 21 -4 17 -20 -4 -16 2
-23 31 -35 23 -10 36 -22 36 -34 0 -27 65 -49 108 -37 25 8 31 14 26 29 -10
30 12 45 59 40 23 -3 48 -10 55 -15 8 -7 12 -7 12 2 0 7 7 10 14 7 10 -4 13
-1 10 8 -3 8 -14 17 -25 20 -23 7 -25 25 -4 25 8 0 15 -4 15 -10 0 -5 13 -8
30 -7 32 2 42 17 11 17 -10 0 -24 7 -31 15 -7 8 -19 15 -26 15 -8 0 -14 4 -14
8 0 5 -12 13 -27 19 l-28 12 30 -6 c29 -5 29 -5 10 10 -28 22 -11 32 32 19 24
-7 42 -8 55 -1 12 6 32 6 59 -1 48 -13 86 -5 57 11 -21 11 -24 39 -5 40 92 6
113 11 126 29 16 24 29 25 53 3 10 -9 18 -12 18 -6 0 10 5 12 61 16 50 5 63
14 44 33 -24 25 -18 37 15 31 19 -4 30 -2 30 5 0 6 3 8 7 5 3 -4 13 -1 21 5 8
7 26 14 41 16 14 2 27 7 29 12 2 4 11 6 22 3 10 -3 16 -11 14 -18 -4 -9 1 -12
14 -8 11 2 23 0 26 -6 4 -6 15 -11 24 -11 16 1 16 2 0 14 -22 16 -23 36 -3 36
8 0 17 -11 21 -25 3 -14 10 -25 16 -25 5 0 6 5 3 10 -9 14 8 13 23 -2 7 -7 12
-8 12 -2 0 25 -84 71 -96 53 -4 -6 -14 -3 -26 8 -11 10 -23 17 -27 15 -3 -2
-7 3 -9 10 -2 11 13 13 70 10 l73 -3 -25 21 -25 22 31 -6 c16 -2 37 -6 45 -8
8 -2 13 4 13 15 -1 13 6 17 37 17 33 0 39 3 39 21 0 11 4 18 9 14 6 -3 25 3
44 14 19 11 55 23 80 26 31 5 44 11 41 20 -9 22 26 25 81 6 l53 -19 21 24 21
24 -1930 0 -1930 0 0 -1050z m3295 880 c3 -5 -1 -10 -10 -10 -9 0 -13 5 -10
10 3 6 8 10 10 10 2 0 7 -4 10 -10z m-125 -15 c0 -8 -4 -15 -9 -15 -13 0 -22
16 -14 24 11 11 23 6 23 -9z m66 -24 c1 -25 2 -24 -31 -9 -34 15 -33 37 3 34
20 -2 27 -9 28 -25z m-837 -925 c-3 -3 -11 5 -18 17 -13 21 -12 21 5 5 10 -10
16 -20 13 -22z m-609 4 c0 -5 -2 -10 -4 -10 -3 0 -8 5 -11 10 -3 6 -1 10 4 10
6 0 11 -4 11 -10z m-30 -15 c0 -9 -6 -12 -17 -8 -11 4 -14 3 -9 -5 5 -8 2 -10
-10 -5 -14 5 -13 8 7 19 30 17 29 17 29 -1z m-306 -22 c38 -20 106 -43 106
-37 0 2 -12 10 -27 16 -28 12 -28 12 14 16 27 2 59 -4 89 -17 41 -19 48 -19
68 -6 21 14 25 14 36 0 7 -8 20 -15 29 -15 15 0 58 -14 126 -40 27 -10 28 -12
12 -21 -12 -7 -22 -7 -31 0 -6 5 -22 8 -34 4 -33 -8 -75 5 -68 22 3 8 1 15 -3
15 -5 0 -11 -7 -15 -15 -7 -20 -26 -19 -26 1 0 8 5 12 10 9 15 -9 12 5 -5 22
-10 9 -22 12 -33 7 -24 -10 -62 -14 -62 -6 0 4 -11 8 -25 8 -21 2 -24 -1 -14
-12 9 -11 8 -14 -7 -14 -28 0 -138 33 -145 43 -4 6 -14 7 -22 4 -9 -3 -18 1
-21 9 -3 8 -10 14 -16 14 -6 0 -8 -6 -4 -12 4 -7 -3 -4 -17 7 -13 11 -25 21
-27 22 -20 10 91 -14 112 -24z m366 -7 c0 -2 -7 -7 -16 -10 -8 -3 -12 -2 -9 4
6 10 25 14 25 6z m-105 -56 c-3 -5 -14 -10 -23 -10 -15 0 -15 2 -2 10 20 13
33 13 25 0z m803 -55 c-3 -3 -9 2 -12 12 -6 14 -5 15 5 6 7 -7 10 -15 7 -18z
m-999 -21 c14 -12 -19 -1 -35 12 -18 14 -18 14 6 3 14 -6 27 -13 29 -15z
m1042 -11 c13 -15 12 -15 -8 -4 -24 12 -29 21 -14 21 5 0 15 -7 22 -17z m-696
-21 c-3 -3 -11 0 -18 7 -9 10 -8 11 6 5 10 -3 15 -9 12 -12z m91 -33 c19 -22
19 -22 -3 -8 -13 8 -23 17 -23 21 0 12 6 9 26 -13z m4974 6 c-7 -8 -20 -15
-28 -15 -13 0 -12 3 4 15 25 19 40 19 24 0z m-5324 -22 c-6 -6 -36 9 -36 18 0
5 9 4 20 -3 10 -7 18 -14 16 -15z m724 -27 c0 -5 -7 -3 -15 4 -8 7 -15 22 -15
34 1 20 2 20 15 -4 8 -14 14 -29 15 -34z m-683 -6 c11 -16 10 -18 -1 -14 -15
6 -30 34 -18 34 4 0 13 -9 19 -20z m2147 -15 c-4 -8 -11 -12 -16 -9 -6 4 -5
10 3 15 19 12 19 11 13 -6z m-142 -47 c-7 -7 -12 -8 -12 -2 0 14 12 26 19 19
2 -3 -1 -11 -7 -17z m2335 16 c-3 -3 -12 -4 -19 -1 -8 3 -5 6 6 6 11 1 17 -2
13 -5z m-3954 -36 c3 -10 1 -18 -4 -18 -5 0 -9 4 -9 8 0 5 -10 14 -22 20 -23
11 -22 11 4 9 16 -1 29 -8 31 -19z m4102 3 c10 -17 -9 -20 -30 -5 -18 14 -18
14 2 14 12 0 24 -4 28 -9z m-3891 -27 c3 -8 2 -12 -4 -9 -6 3 -10 10 -10 16 0
14 7 11 14 -7z m68 -28 c3 3 9 1 13 -5 3 -6 1 -11 -6 -11 -8 0 -5 -9 7 -23 10
-13 0 -3 -23 21 -45 45 -60 71 -20 34 13 -12 26 -20 29 -16z m-270 -11 c3 -13
1 -22 -3 -19 -9 5 -13 44 -5 44 2 0 6 -11 8 -25z m388 14 c0 -6 7 -8 15 -5 11
4 15 0 13 -12 -2 -13 3 -16 19 -14 13 2 32 -3 44 -12 12 -8 27 -12 34 -10 13
5 41 -23 32 -33 -4 -3 -14 0 -23 8 -13 11 -15 11 -14 -2 6 -37 -2 -41 -23 -11
-13 17 -26 29 -30 26 -3 -3 -15 -1 -26 6 -15 7 -21 7 -21 0 0 -8 -6 -8 -20 0
-11 6 -20 15 -20 21 0 6 5 7 12 3 6 -4 8 -3 4 4 -3 6 -15 9 -26 7 -10 -2 -25
4 -32 13 -9 11 -10 14 -1 8 7 -4 21 -2 30 3 23 14 33 14 33 0z m1475 1 c3 -5
1 -10 -4 -10 -6 0 -11 5 -11 10 0 6 2 10 4 10 3 0 8 -4 11 -10z m-1540 -30
c10 -11 16 -20 13 -20 -3 0 -13 9 -23 20 -10 11 -16 20 -13 20 3 0 13 -9 23
-20z m1521 -14 c21 -21 17 -42 -11 -60 -14 -9 -25 -25 -25 -35 0 -10 -7 -21
-14 -24 -10 -4 -13 -1 -9 9 3 7 0 14 -6 14 -6 0 -11 -11 -11 -25 0 -27 -24
-35 -34 -10 -3 8 -12 12 -20 9 -11 -4 -13 0 -9 15 3 12 10 21 17 20 27 -3 36
3 52 33 15 29 15 33 0 43 -8 7 -13 15 -9 18 12 12 64 7 79 -7z m1771 8 c-3 -3
-12 -4 -19 -1 -8 3 -5 6 6 6 11 1 17 -2 13 -5z m163 -35 c10 -35 14 -40 33
-35 28 7 56 -28 32 -38 -8 -3 -21 -3 -29 0 -8 3 -17 0 -22 -7 -5 -9 -2 -10 10
-6 15 6 15 5 -1 -17 -17 -23 -18 -23 -25 -5 -4 11 -17 29 -28 41 -11 12 -20
26 -20 30 0 13 28 78 34 78 3 0 10 -18 16 -41z m-3121 24 c-3 -20 2 -34 10
-28 5 3 22 -6 38 -19 26 -23 26 -24 6 -19 -13 3 -20 10 -17 15 4 6 -1 8 -13 4
-13 -4 -27 2 -44 21 -13 14 -19 23 -12 19 6 -3 14 -2 18 4 7 12 16 13 14 3z
m-723 -48 c34 -19 64 -42 68 -50 4 -12 -3 -10 -26 7 -41 29 -64 43 -105 62
-18 8 -33 18 -33 22 0 9 26 -2 96 -41z m84 30 c-10 -12 -10 -18 0 -30 11 -13
10 -14 -4 -9 -25 10 -20 54 7 54 5 0 4 -7 -3 -15z m185 5 c3 -5 2 -10 -4 -10
-5 0 -13 5 -16 10 -3 6 -2 10 4 10 5 0 13 -4 16 -10z m166 -17 c13 -16 12 -17
-3 -4 -10 7 -18 15 -18 17 0 8 8 3 21 -13z m3598 -24 c8 -24 7 -26 -12 -21
-12 3 -26 8 -32 12 -5 4 -25 11 -44 15 -44 9 -23 23 35 21 38 -1 45 -5 53 -27z
m-3184 -19 c-5 -15 0 -22 18 -29 31 -12 45 -31 18 -24 -29 7 -52 38 -45 57 9
23 17 20 9 -4z m-250 0 c3 -5 1 -10 -4 -10 -6 0 -11 5 -11 10 0 6 2 10 4 10 3
0 8 -4 11 -10z m133 -26 c-4 -3 -12 5 -18 18 -12 22 -12 22 6 6 10 -10 15 -20
12 -24z m255 -4 c3 -11 1 -18 -4 -14 -5 3 -9 12 -9 20 0 20 7 17 13 -6z m32
-8 c-3 -3 -11 0 -18 7 -9 10 -8 11 6 5 10 -3 15 -9 12 -12z m1077 -4 c-7 -7
-12 -8 -12 -2 0 14 12 26 19 19 2 -3 -1 -11 -7 -17z m-582 -12 c0 -2 -8 -10
-17 -17 -16 -13 -17 -12 -4 4 13 16 21 21 21 13z m-1205 -16 c3 -5 1 -10 -4
-10 -6 0 -11 5 -11 10 0 6 2 10 4 10 3 0 8 -4 11 -10z m3680 -237 c74 -25 78
-28 50 -34 -16 -4 -48 -7 -71 -8 -22 0 -44 -4 -47 -8 -4 -3 -30 -7 -59 -9
-155 -8 -210 -13 -215 -18 -4 -3 8 -6 25 -6 18 0 32 -4 32 -10 0 -5 -3 -10 -7
-10 -5 0 -19 -3 -33 -6 -20 -5 -22 -4 -10 6 12 9 9 10 -15 9 -64 -4 -136 1
-131 10 4 5 30 9 59 8 39 -1 60 4 82 20 42 29 100 52 170 68 82 18 80 18 170
-12z m-4532 -71 c8 -6 328 -7 827 -3 968 8 2368 6 2377 -3 7 -7 -20 -9 -83 -6
-23 1 -45 -3 -49 -9 -4 -7 9 -10 37 -10 61 2 70 0 63 -10 -3 -5 5 -12 17 -14
17 -3 14 -5 -10 -6 -18 0 -31 3 -28 8 8 12 -84 18 -151 11 -29 -3 -59 -2 -67
2 -15 9 -1761 3 -1966 -6 -63 -3 -106 -2 -95 3 25 10 -144 21 -290 19 l-110
-2 85 -6 c68 -5 50 -7 -93 -8 -124 -1 -176 -5 -172 -13 4 -6 -3 -5 -14 3 -18
11 -23 11 -30 -1 -7 -10 -24 -12 -75 -6 -72 7 -150 -1 -140 -16 6 -11 -15 -13
-137 -9 -62 1 -99 -2 -103 -9 -4 -6 -15 -11 -24 -10 -23 1 31 26 86 39 24 6
42 17 42 25 0 8 10 21 22 29 l22 16 -26 0 c-15 0 -31 -6 -35 -14 -4 -7 -22
-21 -40 -30 -26 -13 -67 -16 -220 -17 -103 -1 -246 -4 -318 -8 l-130 -6 45
-26 c25 -14 78 -36 119 -48 41 -12 84 -29 97 -38 21 -13 28 -13 72 1 38 13 55
14 79 5 21 -7 38 -7 50 -1 22 12 160 1 189 -16 14 -7 67 -11 149 -10 105 1
131 5 149 19 13 10 50 26 84 35 34 9 59 21 55 27 -3 5 4 6 18 2 13 -5 36 -8
51 -7 15 0 30 -3 33 -8 6 -9 115 -45 128 -42 4 1 26 -7 49 -19 35 -18 57 -21
147 -20 58 1 108 6 109 11 2 6 12 10 23 10 10 0 19 6 19 14 0 15 -29 26 -69
26 -42 0 -15 11 40 16 30 3 67 10 83 15 20 6 33 5 43 -3 8 -7 28 -11 43 -10
15 1 38 -6 51 -18 l24 -19 -33 -1 c-34 0 -55 -26 -32 -40 8 -5 9 -9 1 -14 -6
-4 -11 -3 -11 3 0 18 -39 33 -57 23 -10 -6 -27 -6 -45 0 -20 7 -33 7 -42 -1
-7 -6 -16 -8 -19 -4 -4 3 -7 2 -7 -3 0 -5 16 -18 36 -29 38 -20 74 -59 74 -80
0 -10 -33 -13 -132 -14 -73 -1 -137 -6 -142 -10 -11 -9 -45 -16 -56 -11 -16 6
-67 6 -80 0 -8 -4 -55 -4 -105 1 -49 5 -109 9 -133 9 -23 -1 -48 2 -55 7 -14
8 -127 12 -127 4 0 -3 -72 -7 -160 -9 -122 -2 -173 1 -212 13 -52 15 -158 21
-158 8 0 -3 7 -14 15 -23 14 -15 11 -16 -28 -12 -40 3 -70 6 -144 10 -24 2
-31 6 -27 17 5 12 -4 15 -45 15 -28 0 -51 -4 -51 -10 0 -5 -5 -10 -11 -10 -5
0 -7 5 -4 10 4 6 -5 10 -19 10 -16 0 -26 6 -26 15 0 25 -66 29 -151 8 -69 -17
-77 -17 -64 -3 40 44 14 56 -133 63 -34 1 -62 6 -62 10 0 4 0 11 0 17 0 33
154 56 250 36 55 -12 69 -11 119 4 31 10 49 20 41 22 -89 30 -161 48 -190 48
l-35 1 25 14 c14 8 44 14 68 15 39 0 51 8 35 23 -3 4 -11 3 -17 -2 -6 -5 -74
-11 -151 -14 -151 -5 -142 -2 25 12 101 8 102 8 40 12 -36 2 136 6 381 9 348
4 449 8 462 18 36 30 106 32 140 4z m3847 2 c0 -2 -9 -4 -20 -4 -11 0 -20 4
-20 9 0 5 9 7 20 4 11 -3 20 -7 20 -9z m1970 6 c-8 -5 -19 -10 -25 -10 -5 0
-3 5 5 10 8 5 20 10 25 10 6 0 3 -5 -5 -10z m-747 -7 c-7 -2 -21 -2 -30 0 -10
3 -4 5 12 5 17 0 24 -2 18 -5z m54 1 c-3 -3 -12 -4 -19 -1 -8 3 -5 6 6 6 11 1
17 -2 13 -5z m43 -3 c0 -5 10 -11 23 -13 16 -2 18 -5 7 -9 -9 -4 -26 2 -39 12
-18 15 -19 19 -7 19 9 0 16 -4 16 -9z m320 -6 c-7 -8 -20 -15 -29 -15 -11 0
-8 5 9 14 33 19 35 19 20 1z m-1587 -23 c-18 -5 -27 3 -18 17 4 7 10 7 20 -2
11 -10 11 -13 -2 -15z m454 22 c-3 -3 -12 -4 -19 -1 -8 3 -5 6 6 6 11 1 17 -2
13 -5z m1417 -23 c2 -3 -19 -4 -47 -2 -34 2 -45 6 -33 10 20 8 74 2 80 -8z
m103 13 c-3 -4 -25 -8 -49 -9 -30 -2 -37 0 -23 5 23 10 81 13 72 4z m-554 -11
c-13 -2 -35 -2 -50 0 -16 2 -5 4 22 4 28 0 40 -2 28 -4z m72 -3 c-3 -5 -11
-10 -16 -10 -6 0 -7 5 -4 10 3 6 11 10 16 10 6 0 7 -4 4 -10z m-6532 -7 c-24
-2 -62 -2 -85 0 -24 2 -5 4 42 4 47 0 66 -2 43 -4z m4964 1 c-3 -3 -12 -4 -19
-1 -8 3 -5 6 6 6 11 1 17 -2 13 -5z m143 2 c0 -2 -7 -7 -16 -10 -8 -3 -12 -2
-9 4 6 10 25 14 25 6z m417 -12 c-3 -3 -12 -4 -19 -1 -8 3 -5 6 6 6 11 1 17
-2 13 -5z m820 0 c-3 -3 -12 -4 -19 -1 -8 3 -5 6 6 6 11 1 17 -2 13 -5z m-577
-25 c0 -6 -9 -7 -21 -4 -15 5 -19 4 -15 -4 4 -6 1 -11 -7 -11 -27 0 -27 14 0
26 29 12 43 10 43 -7z m107 15 c-3 -3 -12 -4 -19 -1 -8 3 -5 6 6 6 11 1 17 -2
13 -5z m-4154 -11 c-7 -2 -21 -2 -30 0 -10 3 -4 5 12 5 17 0 24 -2 18 -5z
m602 -14 c23 -10 -167 0 -205 11 -14 4 22 5 80 2 58 -3 114 -9 125 -13z m1878
14 c-7 -2 -21 -2 -30 0 -10 3 -4 5 12 5 17 0 24 -2 18 -5z m3093 -10 c-9 -10
-166 -10 -166 0 0 4 39 7 87 7 47 0 83 -3 79 -7z m-3126 -13 c10 -6 -3 -8 -40
-4 -30 3 -57 8 -59 10 -9 9 85 3 99 -6z m-2777 -7 c-18 -2 -48 -2 -65 0 -18 2
-4 4 32 4 36 0 50 -2 33 -4z m4294 1 c-3 -3 -12 -4 -19 -1 -8 3 -5 6 6 6 11 1
17 -2 13 -5z m1363 -20 c0 -2 -12 -4 -26 -4 -14 0 -23 4 -20 9 6 8 46 4 46 -5z
m155 -5 c23 -6 18 -7 -22 -4 -32 2 -81 -3 -125 -15 -40 -10 -97 -19 -126 -19
-30 0 -59 -5 -66 -10 -7 -6 -15 -8 -19 -5 -3 3 -16 -1 -29 -9 -14 -9 -31 -12
-43 -7 -17 6 -15 10 23 29 60 31 132 43 157 27 17 -11 30 -10 80 4 66 19 124
22 170 9z m-6065 -3 c0 -11 -19 -15 -25 -6 -3 5 1 10 9 10 9 0 16 -2 16 -4z
m5211 -46 c-29 -11 -58 -23 -65 -28 -6 -5 -18 -9 -26 -9 -8 -1 -23 -4 -33 -8
-13 -5 -9 2 10 23 32 34 47 39 118 40 l50 1 -54 -19z m132 13 c-7 -2 -21 -2
-30 0 -10 3 -4 5 12 5 17 0 24 -2 18 -5z m-40 -40 c-7 -2 -19 -2 -25 0 -7 3
-2 5 12 5 14 0 19 -2 13 -5z m112 -14 c-27 -4 -61 -11 -75 -14 l-25 -5 25 15
c14 8 47 14 75 13 l50 0 -50 -9z m325 -9 c58 -6 123 -12 145 -14 22 -2 -16 -3
-85 -3 -69 1 -131 -2 -137 -6 -6 -4 -47 -9 -91 -11 -75 -4 -80 -3 -90 19 -6
13 -9 25 -6 27 6 7 145 0 264 -12z m-560 -10 c-20 -13 -33 -13 -25 0 3 6 14
10 23 10 15 0 15 -2 2 -10z m885 0 c3 -5 -1 -10 -10 -10 -9 0 -13 5 -10 10 3
6 8 10 10 10 2 0 7 -4 10 -10z m-5075 -51 c0 -14 -17 -10 -23 5 -4 10 -1 13 9
9 7 -3 14 -9 14 -14z m4156 14 c-8 -8 -57 -12 -52 -5 2 4 16 8 31 8 14 1 24 0
21 -3z m-4036 -13 c0 -12 -8 -12 -35 0 -18 8 -17 9 8 9 15 1 27 -3 27 -9z
m3945 -1 c-16 -6 -14 -8 12 -8 31 -1 59 -21 29 -21 -9 0 -16 -4 -16 -9 0 -5
-11 -4 -25 2 -14 7 -25 17 -25 24 0 6 -12 13 -27 16 -16 2 -5 4 22 4 34 0 44
-2 30 -8z m-6260 -6 c-11 -3 -24 -9 -29 -14 -6 -5 -18 -9 -29 -9 -11 0 -15 -4
-11 -12 4 -7 3 -8 -5 -4 -6 4 -20 2 -29 -5 -12 -10 -11 -6 3 10 24 29 50 40
90 39 20 0 23 -2 10 -5z m7055 -9 c30 -9 108 -19 173 -23 100 -6 121 -10 138
-28 l21 -20 -64 2 c-61 3 -78 5 -201 26 -71 12 -204 4 -272 -18 -60 -18 -235
-103 -235 -113 0 -15 -38 -17 -61 -3 -24 14 -24 14 9 9 31 -5 32 -4 30 23 -4
48 37 79 127 95 22 4 50 14 63 22 12 8 22 13 22 10 0 -2 26 4 58 15 72 23 123
23 192 3z m-6530 -28 c0 -11 -19 -15 -25 -6 -3 5 1 10 9 10 9 0 16 -2 16 -4z
m5710 -6 c0 -5 -5 -10 -11 -10 -5 0 -7 5 -4 10 3 6 8 10 11 10 2 0 4 -4 4 -10z
m-5673 -6 c-3 -3 -12 -4 -19 -1 -8 3 -5 6 6 6 11 1 17 -2 13 -5z m1553 -12 c0
-13 -44 -135 -58 -160 -10 -18 -18 -21 -40 -15 -57 14 -171 1 -184 -22 -4 -6
-26 -17 -50 -24 -24 -7 -52 -17 -63 -21 -91 -37 -155 -34 -174 8 -7 15 -8 28
-3 31 9 6 52 85 52 95 0 10 -60 18 -122 17 -36 -1 -69 3 -73 9 -3 6 4 11 17
11 13 1 37 3 53 4 17 1 77 3 135 5 58 1 128 6 155 11 28 6 95 17 150 25 84 13
119 19 198 33 4 0 7 -3 7 -7z m-1045 -53 c10 -31 -9 -45 -41 -30 -26 11 -26
12 -9 31 23 26 42 25 50 -1z m-299 -35 c-23 -16 -52 -18 -61 -4 -9 15 57 41
70 29 7 -7 4 -15 -9 -25z m492 3 l23 -13 -23 -12 c-31 -15 -48 -17 -80 -9 -26
7 -36 26 -21 40 11 11 77 7 101 -6z m4241 -69 c1 -5 -6 -8 -14 -8 -15 0 -21
31 -8 44 7 6 20 -17 22 -36z m-4762 16 c-3 -3 -12 -4 -19 -1 -8 3 -5 6 6 6 11
1 17 -2 13 -5z m5868 -39 c-16 -7 -32 -11 -35 -9 -7 8 24 24 45 23 15 0 13 -4
-10 -14z m-55 -25 c-8 -5 -19 -10 -25 -10 -5 0 -3 5 5 10 8 5 20 10 25 10 6 0
3 -5 -5 -10z m703 -67 c-7 -2 -21 -2 -30 0 -10 3 -4 5 12 5 17 0 24 -2 18 -5z
m-1451 -474 c29 -11 60 -27 68 -36 13 -14 13 -14 -9 -3 -13 7 -35 13 -48 15
-14 1 -28 7 -32 12 -3 4 -17 14 -31 20 -43 20 -3 14 52 -8z m-5872 -297 c0 -5
-13 -7 -30 -4 -16 2 -30 6 -30 8 0 2 14 4 30 4 17 0 30 -4 30 -8z m127 -8 c-3
-3 -12 -4 -19 -1 -8 3 -5 6 6 6 11 1 17 -2 13 -5z m336 -99 c8 -15 7 -17 -7
-12 -10 4 -22 7 -27 7 -5 0 -9 5 -9 11 0 7 -8 18 -17 25 -15 12 -13 12 16 0
18 -7 38 -21 44 -31z m5627 10 c-7 -9 -15 -13 -18 -10 -3 2 1 11 8 20 7 9 15
13 18 10 3 -2 -1 -11 -8 -20z m1152 -10 c3 0 10 -3 14 -7 4 -4 -7 -6 -25 -5
-17 1 -31 5 -31 8 0 12 13 18 24 11 6 -4 14 -7 18 -7z m258 -15 c0 -17 -42
-22 -57 -7 -14 13 -11 15 21 15 20 0 36 -4 36 -8z m-1990 -23 c0 -5 4 -6 9 -3
4 3 16 -1 26 -8 16 -12 15 -14 -16 -20 -73 -17 -149 -8 -149 16 0 5 6 8 12 6
7 -3 18 1 25 8 14 14 93 14 93 1z m1447 -14 c-8 -7 -37 9 -31 19 3 5 12 4 20
-3 8 -6 13 -14 11 -16z m-5372 -3 c-3 -5 -10 -10 -16 -10 -5 0 -9 5 -9 10 0 6
7 10 16 10 8 0 12 -4 9 -10z m-122 -7 c-13 -2 -33 -2 -45 0 -13 2 -3 4 22 4
25 0 35 -2 23 -4z m-73 -7 c0 -2 -11 -6 -25 -8 -14 -3 -25 -1 -25 3 0 5 11 9
25 9 14 0 25 -2 25 -4z m5900 0 c0 -2 -8 -10 -17 -17 -16 -13 -17 -12 -4 4 13
16 21 21 21 13z m-6681 -116 c9 -26 7 -30 -24 -44 -36 -18 -59 -21 -35 -6 13
8 13 10 1 10 -12 0 -12 2 1 13 14 10 15 20 9 55 l-9 43 24 -22 c12 -12 27 -34
33 -49z m6749 -21 c8 -12 9 -18 3 -14 -6 3 -11 2 -11 -3 0 -6 -8 -13 -17 -16
-16 -6 -16 -6 0 12 13 14 14 21 5 30 -7 7 -8 12 -2 12 5 0 15 -9 22 -21z m-28
-3 c0 -3 -4 -8 -10 -11 -5 -3 -10 -1 -10 4 0 6 5 11 10 11 6 0 10 -2 10 -4z
m-3653 -60 c3 -3 -12 -6 -35 -6 -22 0 -43 4 -46 9 -6 9 71 7 81 -3z m-2187
-44 c0 -4 -26 -8 -57 -9 -43 -1 -51 0 -33 7 32 10 90 12 90 2z m643 -19 c-7
-2 -19 -2 -25 0 -7 3 -2 5 12 5 14 0 19 -2 13 -5z m-263 -23 c28 -9 32 -8 -75
-14 -22 -1 -51 -6 -65 -10 -17 -6 -22 -5 -15 2 24 25 109 37 155 22z m-108
-45 c-18 -8 -47 -24 -63 -35 -16 -12 -29 -18 -29 -14 0 4 -8 1 -17 -7 -27 -22
-93 -50 -104 -44 -18 12 -9 22 30 33 21 7 72 28 112 47 41 19 81 34 89 34 8 0
0 -6 -18 -14z m724 -14 c-8 -12 -46 -21 -46 -11 0 9 18 18 38 19 7 1 11 -3 8
-8z m514 -21 c12 -8 11 -10 -7 -10 -12 0 -25 5 -28 10 -8 13 15 13 35 0z
m-570 -5 c0 -2 -9 -9 -20 -15 -15 -8 -25 -8 -38 0 -13 9 -13 10 -1 7 9 -3 22
-1 30 4 15 10 29 12 29 4z m607 -50 c10 -32 10 -34 -18 -40 -16 -4 -31 -11
-34 -16 -7 -11 -3 -11 54 0 24 5 55 5 70 1 l26 -8 -25 -1 c-25 -2 -24 -2 10
-31 35 -30 35 -39 -1 -20 -11 6 -19 7 -19 1 0 -5 -9 -7 -20 -4 -11 3 -20 8
-20 12 0 3 -14 12 -31 20 -28 12 -34 11 -87 -22 -59 -36 -138 -67 -172 -67
-10 0 -20 -4 -22 -8 -1 -5 -14 -5 -28 -1 -18 5 -20 7 -6 8 12 1 16 6 12 16 -4
10 1 15 16 15 17 0 18 2 8 15 -7 9 -19 14 -27 11 -7 -3 -23 -1 -35 4 -17 6 -7
9 43 9 46 1 70 6 79 16 7 8 21 15 31 15 10 0 21 5 24 10 3 6 17 10 31 10 15 0
24 5 22 13 -3 16 12 60 23 67 5 3 26 6 47 7 36 2 40 -1 49 -32z m-197 -15 c0
-5 7 -7 15 -4 8 4 15 1 15 -5 0 -13 -6 -13 -49 -5 -17 4 -28 10 -25 15 7 12
44 11 44 -1z m230 -5 c7 -9 8 -15 2 -15 -5 0 -12 7 -16 15 -3 8 -4 15 -2 15 2
0 9 -7 16 -15z m90 -5 c-16 -11 -40 -13 -40 -5 0 8 44 24 50 18 2 -2 -2 -8
-10 -13z m253 -27 c-7 -2 -19 -2 -25 0 -7 3 -2 5 12 5 14 0 19 -2 13 -5z
m3747 -23 c-8 -5 -19 -10 -25 -10 -5 0 -3 5 5 10 8 5 20 10 25 10 6 0 3 -5 -5
-10z m-3670 -40 c0 -5 -9 -10 -21 -10 -11 0 -17 5 -14 10 3 6 13 10 21 10 8 0
14 -4 14 -10z m-270 -32 c0 -4 8 -4 17 -1 14 5 13 2 -4 -17 -21 -21 -24 -22
-45 -8 -26 17 -75 21 -84 7 -3 -5 0 -9 7 -9 9 0 9 -3 -1 -14 -12 -15 -44 -11
-35 4 3 4 -10 14 -28 20 l-32 12 25 8 c32 9 180 7 180 -2z m518 -56 c2 -7 8
-12 14 -12 6 0 8 6 5 14 -5 11 2 13 31 9 20 -3 43 -5 50 -6 6 0 12 -5 12 -12
0 -6 16 -17 35 -24 19 -6 56 -27 82 -45 26 -18 55 -35 63 -38 10 -3 4 -10 -20
-20 -39 -18 -102 -29 -94 -16 3 4 -4 8 -16 8 -12 0 -18 -4 -15 -10 9 -15 -9
-12 -31 6 -10 8 -13 13 -6 9 22 -11 34 6 17 25 -14 15 -27 17 -83 13 -37 -3
-84 -9 -106 -13 -22 -5 -64 -4 -98 1 -33 5 -70 7 -81 4 -20 -6 -20 -5 3 14
l25 19 -28 7 c-15 4 -36 5 -47 2 -12 -3 -20 0 -20 8 0 7 9 15 20 18 12 3 18
11 15 19 -10 26 37 36 154 34 78 -2 116 -6 119 -14z m-1895 -23 c17 -18 17
-19 -8 -19 -14 0 -28 0 -32 0 -5 0 -8 6 -8 13 0 6 -10 13 -23 15 -12 2 -20 8
-16 13 9 15 66 0 87 -22z m877 21 c-19 -13 -30 -13 -30 0 0 6 10 10 23 10 18
0 19 -2 7 -10z m-957 -34 c33 -1 16 -14 -23 -18 -34 -3 -40 -1 -40 15 0 15 5
17 23 11 12 -4 30 -8 40 -8z m1555 -1 c-2 -1 -16 -5 -33 -9 -28 -7 -29 -6 -10
7 10 8 25 12 33 10 7 -3 12 -7 10 -8z m-2103 -14 c-11 -5 -23 -7 -27 -4 -4 2
-21 -3 -37 -12 -33 -17 -55 -20 -47 -6 3 4 -9 7 -26 5 -37 -5 -27 12 12 19 46
8 146 6 125 -2z m475 -1 c0 -5 -2 -10 -4 -10 -3 0 -8 5 -11 10 -3 6 -1 10 4
10 6 0 11 -4 11 -10z m549 6 c-2 -2 -33 -7 -69 -10 -43 -4 -58 -3 -45 3 19 9
123 15 114 7z m1188 -42 c-3 -3 -12 -4 -19 -1 -8 3 -5 6 6 6 11 1 17 -2 13 -5z
m-510 -18 c135 -69 155 -74 253 -65 35 3 77 -10 92 -29 10 -11 10 -16 1 -19
-19 -7 -3 -33 20 -33 30 0 9 -18 -27 -23 -17 -2 -32 -10 -34 -17 -3 -9 1 -11
12 -7 10 4 29 4 42 1 l25 -6 -21 -15 c-28 -20 -197 -24 -209 -5 -6 9 -34 14
-95 14 -47 0 -86 4 -86 9 0 15 -40 31 -53 21 -15 -11 -60 -7 -84 7 -15 8 -11
11 22 12 35 1 37 2 15 9 -14 4 -45 9 -70 10 -41 1 -102 18 -72 19 23 2 25 31
2 49 -22 17 -22 18 -3 41 15 19 34 25 84 31 106 12 156 11 186 -4z m930 -12
c-3 -3 -12 -4 -19 -1 -8 3 -5 6 6 6 11 1 17 -2 13 -5z m-330 -10 c-3 -3 -12
-4 -19 -1 -8 3 -5 6 6 6 11 1 17 -2 13 -5z m-787 -138 c0 -9 -30 -14 -35 -6
-4 6 3 10 14 10 12 0 21 -2 21 -4z m-823 -12 c-3 -3 -12 -4 -19 -1 -8 3 -5 6
6 6 11 1 17 -2 13 -5z m-1261 -56 c5 -7 3 -8 -6 -3 -7 4 -16 2 -21 -6 -7 -11
-9 -10 -9 4 0 19 25 23 36 5z m79 -3 c39 -14 39 -14 10 -14 -41 -1 -76 9 -69
20 7 12 12 11 59 -6z m6024 -29 c10 -7 54 -14 120 -21 56 -5 129 -24 146 -37
60 -46 111 -80 143 -97 63 -32 86 -73 52 -91 -18 -10 -18 -11 3 -33 12 -12 39
-34 59 -47 49 -33 54 -47 17 -55 -16 -4 -27 -10 -24 -15 3 -5 -9 -7 -27 -5
-48 4 -116 24 -123 35 -3 6 -12 10 -18 10 -8 0 -7 -3 2 -9 10 -6 2 -9 -22 -8
-21 0 -43 -5 -50 -12 -10 -10 -8 -11 8 -6 16 6 17 5 5 -4 -8 -6 -24 -8 -35 -4
-17 5 -18 4 -7 -10 7 -8 12 -19 11 -23 -3 -18 1 -33 14 -46 6 -7 18 -21 26
-31 12 -15 12 -17 -3 -11 -9 3 -16 1 -16 -5 0 -6 6 -11 13 -11 7 0 20 -9 30
-20 16 -20 16 -21 -7 -30 -32 -12 -43 -30 -14 -23 18 5 21 3 11 -7 -9 -10 -7
-17 10 -30 12 -9 31 -20 41 -24 10 -3 16 -9 13 -12 -3 -3 -30 6 -60 20 -29 14
-59 26 -66 26 -7 0 -9 5 -6 10 6 10 -28 15 -69 10 -11 -1 -15 3 -12 9 5 7 -3
11 -19 11 -17 0 -24 4 -19 12 5 8 -2 9 -27 4 -26 -5 -31 -4 -21 6 7 7 12 17
12 22 0 6 -4 5 -9 -3 -9 -13 -35 -6 -27 7 2 4 -11 15 -30 24 -19 10 -34 14
-34 10 0 -16 -75 1 -97 21 -19 16 -25 18 -38 7 -12 -10 -21 -10 -45 0 -16 7
-30 17 -30 22 0 5 -10 6 -21 3 -15 -5 -19 -4 -15 4 4 6 0 11 -9 11 -15 0 -24
6 -58 36 -7 6 -17 9 -23 7 -13 -4 -27 24 -18 38 3 5 -6 9 -20 9 -16 0 -26 6
-26 15 0 8 -5 15 -10 15 -6 0 -10 6 -8 13 1 6 -3 21 -9 32 -6 11 -9 47 -7 80
6 84 6 85 16 85 4 0 8 4 8 9 0 14 41 56 68 70 13 7 45 15 70 17 26 3 54 7 62
10 8 3 31 8 50 10 18 3 36 6 38 9 5 5 121 -3 131 -9z m-3784 -71 c22 -8 32
-14 23 -15 -9 0 -24 -7 -33 -16 -13 -14 -29 -16 -85 -10 -46 4 -70 2 -72 -5
-3 -8 -19 -7 -53 4 l-50 14 48 7 c30 5 45 11 41 18 -4 6 -3 9 2 5 5 -3 25 -2
44 3 54 12 91 11 135 -5z m-2680 -35 c3 -5 1 -10 -4 -10 -6 0 -11 5 -11 10 0
6 2 10 4 10 3 0 8 -4 11 -10z m-25 -14 c0 -2 -7 -7 -16 -10 -8 -3 -12 -2 -9 4
6 10 25 14 25 6z m2323 -13 c-7 -2 -19 -2 -25 0 -7 3 -2 5 12 5 14 0 19 -2 13
-5z m342 -2 c3 -5 -3 -12 -12 -15 -10 -2 3 -2 29 1 40 4 51 2 72 -18 39 -37
54 -49 63 -49 10 -1 63 -47 63 -55 0 -3 -12 -5 -27 -5 -16 0 -35 -5 -43 -10
-11 -7 -7 -10 17 -10 17 0 35 -4 38 -10 3 -5 -3 -10 -14 -10 -24 0 -36 -16
-19 -23 14 -6 -24 -10 -59 -7 -13 1 -23 -3 -23 -9 0 -6 -4 -11 -10 -11 -5 0
-7 6 -4 13 3 8 -1 14 -8 14 -7 1 -38 6 -68 13 -30 6 -86 9 -125 6 -38 -3 -62
-3 -52 0 9 3 14 10 11 16 -4 7 5 8 27 3 l34 -6 -29 15 c-15 9 -37 16 -48 16
-10 0 -16 5 -13 10 7 11 -18 14 -29 3 -14 -14 -32 -10 -33 8 -1 11 5 19 13 19
8 0 12 5 9 11 -10 16 27 39 53 32 27 -6 114 6 108 15 -5 8 20 33 27 26 2 -2
10 2 17 11 14 17 26 19 35 6z m-168 -37 c-3 -3 -12 -4 -19 -1 -8 3 -5 6 6 6
11 1 17 -2 13 -5z m-2067 -128 c0 -3 -4 -8 -10 -11 -5 -3 -10 -1 -10 4 0 6 5
11 10 11 6 0 10 -2 10 -4z m2485 -52 c14 -9 22 -21 19 -26 -4 -6 -9 -7 -13 -1
-3 6 -19 13 -34 17 -24 6 -27 5 -15 -8 7 -8 15 -14 18 -13 3 0 19 -6 35 -13
22 -10 26 -14 13 -17 -10 -3 -15 -10 -11 -19 7 -18 -2 -18 -33 2 -24 16 -26
16 -39 -3 -14 -20 -47 -22 -138 -10 -22 4 -25 2 -16 -9 10 -12 5 -13 -26 -9
-21 2 -42 10 -47 17 -6 10 -11 9 -19 -4 -5 -10 -19 -18 -31 -18 -17 0 -18 2
-8 15 16 19 1 19 -24 0 -11 -8 -25 -15 -30 -15 -6 0 0 9 14 20 14 11 36 19 50
18 14 0 34 3 44 7 13 6 17 5 12 -3 -3 -6 -2 -13 3 -16 5 -3 11 0 14 7 3 7 31
20 62 27 37 9 52 16 41 20 -12 4 -1 10 33 19 28 7 53 17 57 22 8 14 42 11 69
-7z m-714 -25 c37 -26 29 -41 -14 -28 -17 6 -36 12 -42 13 -5 2 -19 7 -30 12
-19 8 -19 8 5 15 41 11 50 10 81 -12z m479 1 c12 -8 11 -10 -6 -10 -12 0 -37
-3 -55 -6 l-34 -5 25 15 c29 18 49 20 70 6z m1075 -11 c4 -6 13 -8 21 -5 8 3
14 1 14 -4 0 -6 -8 -10 -17 -11 -10 0 -3 -5 15 -10 19 -6 32 -16 32 -25 0 -11
6 -15 20 -11 11 3 18 1 14 -4 -3 -5 8 -9 25 -9 17 0 42 -6 57 -12 22 -10 28
-10 32 0 5 16 22 5 22 -14 0 -8 -5 -12 -10 -9 -6 3 -13 -1 -16 -9 -3 -9 -14
-16 -24 -16 -23 0 -37 -20 -20 -30 16 -10 -17 -22 -41 -15 -9 3 -20 1 -24 -5
-3 -5 -1 -10 4 -10 6 0 11 -4 11 -10 0 -13 -54 -3 -112 21 -26 10 -56 19 -68
19 -12 0 -19 4 -16 9 7 10 -16 21 -47 22 -12 0 -16 3 -9 6 17 7 -15 32 -40 33
-19 0 -23 17 -9 38 5 9 25 13 57 11 l49 -3 -1 32 c-1 31 1 32 37 32 21 0 41
-5 44 -11z m1502 -5 c-3 -3 -12 -4 -19 -1 -8 3 -5 6 6 6 11 1 17 -2 13 -5z
m-2757 -90 c0 -8 -5 -12 -10 -9 -6 4 -22 -1 -35 -9 -14 -9 -25 -13 -25 -8 0 6
50 37 68 41 1 1 2 -6 2 -15z m2425 -148 c38 -10 82 -15 97 -12 15 3 30 1 34
-5 4 -7 10 -7 16 -1 12 12 108 -36 146 -71 12 -12 31 -31 43 -42 11 -11 23
-20 27 -20 4 0 26 -19 50 -43 24 -23 47 -42 53 -42 6 0 7 -4 4 -10 -3 -5 6
-19 20 -32 14 -12 25 -27 25 -34 0 -7 11 -21 25 -32 13 -11 22 -22 18 -25 -3
-4 2 -9 11 -13 9 -3 16 -10 16 -15 0 -4 11 -20 25 -35 14 -15 25 -33 25 -40 0
-7 9 -18 20 -24 11 -6 18 -15 14 -21 -3 -5 0 -16 6 -24 6 -8 9 -19 6 -24 -4
-5 -2 -12 3 -15 10 -7 8 -146 -2 -163 -10 -16 -12 -67 -3 -81 4 -7 3 -12 -2
-12 -5 0 -8 -14 -7 -31 1 -17 -3 -33 -10 -35 -6 -3 -10 -18 -9 -35 1 -16 -4
-36 -12 -44 -8 -7 -14 -17 -14 -21 0 -4 -13 -20 -30 -36 -16 -15 -30 -33 -30
-39 0 -5 -5 -7 -10 -4 -6 3 -13 -1 -16 -9 -3 -9 -15 -16 -25 -16 -10 0 -19 -4
-19 -9 0 -5 -13 -11 -30 -14 -19 -4 -30 -13 -30 -23 0 -12 -6 -15 -25 -10 -18
5 -25 2 -25 -8 0 -7 -7 -27 -15 -42 -8 -16 -15 -40 -16 -54 0 -14 -3 -19 -6
-12 -8 20 -23 3 -23 -28 0 -22 -4 -28 -15 -24 -12 5 -15 -2 -15 -32 0 -29 -3
-35 -10 -24 -8 12 -10 12 -10 -5 -1 -26 -22 -53 -37 -48 -7 3 -13 -2 -13 -11
0 -9 -6 -17 -12 -17 -7 -1 -17 -2 -23 -4 -5 -1 -17 -3 -25 -4 -9 -2 -5 -6 10
-11 19 -6 9 -8 -37 -9 -58 -1 -81 -12 -50 -24 6 -3 -21 -6 -62 -6 -56 -1 -72
-4 -68 -14 3 -8 -2 -13 -12 -13 -52 -1 -81 -5 -81 -13 0 -5 8 -12 18 -14 9 -3
-21 -6 -68 -6 -127 -2 -130 -2 -150 9 -13 7 -20 6 -24 -3 -3 -9 -9 -7 -19 6
-10 12 -29 17 -71 17 -39 0 -55 4 -53 13 1 8 -14 13 -45 15 -32 2 -48 8 -48
16 0 8 -10 14 -22 14 -61 2 -78 5 -78 18 0 8 -10 14 -25 14 -18 0 -23 4 -19
15 5 11 -1 15 -20 15 -27 0 -32 3 -86 53 -16 15 -34 27 -39 27 -5 0 -11 9 -14
20 -3 11 -13 23 -24 27 -10 4 -24 13 -31 20 -7 7 -19 13 -27 13 -7 0 -16 7
-19 16 -4 9 -9 14 -12 11 -7 -7 -38 24 -47 46 -4 10 -10 16 -15 15 -13 -5 -82
46 -82 60 0 7 -7 15 -15 18 -8 4 -15 12 -15 20 0 8 -4 14 -8 14 -13 0 -33 75
-26 94 3 9 1 16 -5 16 -6 0 -11 12 -11 26 0 17 4 23 13 18 9 -5 9 -4 0 6 -8 8
-9 19 -3 30 9 16 18 59 19 93 1 9 9 17 19 17 14 0 15 2 2 10 -13 8 -13 11 -1
19 7 5 10 14 7 20 -4 6 -2 11 5 11 7 0 9 3 6 7 -4 3 2 12 13 20 26 18 27 77 2
95 -19 13 -21 52 -7 98 6 19 4 22 -11 17 -14 -5 -14 -3 4 9 21 16 33 52 12 39
-20 -12 -9 12 16 36 17 16 24 31 21 46 -2 13 1 23 7 23 6 0 5 4 -3 9 -11 7 -9
10 8 16 11 3 21 11 21 16 0 5 20 18 45 30 25 12 45 25 45 29 0 4 25 18 55 30
31 12 67 31 80 42 14 11 51 30 82 42 32 13 67 27 78 31 11 5 27 9 37 10 9 1
25 6 35 10 10 4 25 9 33 10 8 2 26 6 40 10 38 9 61 14 105 20 22 3 47 8 55 11
8 4 32 8 53 11 21 3 49 8 64 12 45 12 206 4 278 -13z m628 7 c-20 -7 -15 -19
7 -19 11 0 20 4 20 8 0 4 7 8 16 8 13 0 14 -3 5 -14 -10 -12 -9 -14 7 -10 10
3 24 -2 31 -10 8 -9 22 -16 32 -16 11 0 19 -5 19 -11 0 -5 -5 -7 -12 -3 -7 4
-8 3 -4 -4 8 -13 46 -16 46 -4 0 4 -5 13 -12 20 -6 6 -9 14 -6 17 9 9 61 -43
56 -57 -5 -14 20 -41 43 -46 8 -2 19 -9 25 -17 5 -7 19 -13 29 -12 24 2 30
-42 7 -51 -12 -4 -10 -7 7 -14 12 -4 19 -12 16 -18 -4 -6 -11 -8 -16 -5 -13 9
-11 -2 6 -35 15 -30 6 -48 -17 -34 -10 6 -10 4 0 -7 17 -18 15 -34 -2 -19 -8
6 -28 11 -43 10 -53 -4 -63 0 -63 21 0 11 -4 18 -9 15 -4 -3 -32 17 -61 44
-30 28 -61 50 -71 50 -10 0 -23 13 -31 30 -9 21 -20 30 -38 31 -27 0 -74 17
-52 18 7 1 11 5 8 9 -3 5 -20 7 -38 6 -18 -2 -25 -1 -15 2 24 8 21 19 -9 33
l-26 12 28 22 c16 12 32 21 36 20 4 -2 22 6 40 16 18 11 38 20 43 20 6 -1 4
-3 -2 -6z m-3693 -40 c15 -11 20 -18 12 -21 -19 -6 -44 6 -37 18 4 6 -6 10
-22 10 -15 0 -35 5 -43 11 -25 18 61 0 90 -18z m335 -123 c-3 -5 -14 -10 -23
-10 -15 0 -15 2 -2 10 20 13 33 13 25 0z m-875 -365 c-7 -9 -15 -13 -19 -10
-3 3 1 10 9 15 21 14 24 12 10 -5z m-90 -120 c0 -8 -4 -15 -10 -15 -5 0 -7 7
-4 15 4 8 8 15 10 15 2 0 4 -7 4 -15z m134 -133 c3 -5 -1 -9 -9 -9 -8 0 -12 4
-9 9 3 4 7 8 9 8 2 0 6 -4 9 -8z m413 -64 c-3 -8 -6 -5 -6 6 -1 11 2 17 5 13
3 -3 4 -12 1 -19z m4058 -77 c11 -1 16 -5 10 -9 -5 -4 -18 -16 -27 -27 -16
-19 -16 -20 6 -20 18 0 22 4 18 20 -3 11 -2 17 2 14 4 -4 8 -22 9 -42 3 -32 0
-36 -26 -41 -16 -3 -37 -2 -46 4 -10 5 -22 5 -27 1 -5 -5 -23 -13 -40 -19 -26
-8 -33 -7 -44 8 -8 11 -17 17 -21 14 -4 -2 -7 12 -7 31 0 21 4 32 10 29 6 -4
13 -2 17 4 8 12 100 39 126 36 11 -1 29 -3 40 -3z m-3825 -55 c0 -11 -19 -15
-25 -6 -3 5 1 10 9 10 9 0 16 -2 16 -4z m350 -406 c0 -5 -5 -10 -11 -10 -5 0
-7 5 -4 10 3 6 8 10 11 10 2 0 4 -4 4 -10z m-2480 -30 c0 -5 -2 -10 -4 -10 -3
0 -8 5 -11 10 -3 6 -1 10 4 10 6 0 11 -4 11 -10z m2507 -276 c-3 -3 -12 -4
-19 -1 -8 3 -5 6 6 6 11 1 17 -2 13 -5z m-650 -650 c-3 -3 -12 -4 -19 -1 -8 3
-5 6 6 6 11 1 17 -2 13 -5z"/>
<path d="M3340 8482 c0 -5 7 -13 16 -16 10 -4 14 -1 12 6 -5 15 -28 23 -28 10z"/>
<path d="M8470 7440 c0 -5 7 -7 15 -4 8 4 15 8 15 10 0 2 -7 4 -15 4 -8 0 -15
-4 -15 -10z"/>
<path d="M4648 5613 c6 -2 18 -2 25 0 6 3 1 5 -13 5 -14 0 -19 -2 -12 -5z"/>
<path d="M4750 5610 c0 -5 7 -7 15 -4 9 4 15 0 15 -10 0 -9 7 -16 15 -16 20 0
19 10 -2 26 -21 16 -43 18 -43 4z"/>
<path d="M5190 5460 c0 -5 5 -10 10 -10 6 0 10 5 10 10 0 6 -4 10 -10 10 -5 0
-10 -4 -10 -10z"/>
<path d="M5598 5373 c7 -3 16 -2 19 1 4 3 -2 6 -13 5 -11 0 -14 -3 -6 -6z"/>
<path d="M8285 4640 c-3 -5 -2 -10 4 -10 5 0 13 5 16 10 3 6 2 10 -4 10 -5 0
-13 -4 -16 -10z"/>
<path d="M8393 4613 c9 -2 23 -2 30 0 6 3 -1 5 -18 5 -16 0 -22 -2 -12 -5z"/>
<path d="M4768 4733 c7 -3 16 -2 19 1 4 3 -2 6 -13 5 -11 0 -14 -3 -6 -6z"/>
<path d="M4795 4690 c3 -5 11 -10 16 -10 6 0 7 5 4 10 -3 6 -11 10 -16 10 -6
0 -7 -4 -4 -10z"/>
<path d="M5540 4650 c0 -5 5 -10 11 -10 5 0 7 5 4 10 -3 6 -8 10 -11 10 -2 0
-4 -4 -4 -10z"/>
<path d="M5585 4644 c-19 -14 -19 -15 2 -11 26 4 38 13 26 20 -4 3 -17 -1 -28
-9z"/>
<path d="M5728 4653 c7 -3 16 -2 19 1 4 3 -2 6 -13 5 -11 0 -14 -3 -6 -6z"/>
<path d="M6200 9705 c0 -14 11 -19 37 -16 6 1 14 -3 18 -9 3 -5 15 -10 25 -10
10 0 23 -6 27 -14 8 -15 23 -19 61 -17 15 1 21 5 16 13 -5 7 -3 8 7 2 8 -5 27
-9 42 -9 22 0 27 4 23 18 -5 20 -2 21 24 7 13 -7 21 -6 30 5 14 16 34 10 24
-7 -4 -7 -2 -8 4 -4 7 4 12 14 12 22 0 8 5 14 10 14 6 0 10 -5 10 -10 0 -7 6
-7 20 0 36 20 21 30 -45 30 -61 0 -87 -13 -47 -23 10 -3 7 -5 -10 -6 -20 -1
-26 3 -22 14 5 13 -13 15 -130 15 -114 0 -136 -2 -136 -15z"/>
<path d="M3717 9199 c8 -8 16 -8 30 0 16 9 14 10 -11 11 -22 0 -27 -3 -19 -11z"/>
<path d="M6431 8623 c-1 -7 -13 -16 -28 -19 -16 -4 -32 -9 -38 -13 -5 -3 -15
-6 -21 -6 -13 0 -74 -69 -74 -84 0 -6 -5 -10 -12 -8 -7 1 -17 -11 -23 -28 -5
-16 -21 -45 -35 -64 -14 -18 -24 -37 -23 -41 1 -4 -13 -25 -31 -46 -51 -60
-43 -102 27 -147 15 -10 25 -22 22 -26 -2 -5 2 -14 10 -21 8 -7 15 -9 15 -5 0
5 9 0 20 -10 19 -17 20 -17 31 7 8 19 19 25 42 26 17 0 37 8 43 16 11 16 29
23 21 9 -3 -5 -1 -18 4 -30 10 -28 53 -31 89 -6 41 28 48 44 39 77 -5 17 -9
32 -9 33 0 1 7 0 15 -3 8 -4 15 -12 15 -19 0 -19 32 -52 56 -59 14 -4 28 -1
38 9 12 12 20 13 35 5 26 -13 73 3 65 24 -6 16 15 33 25 20 12 -17 69 -44 93
-44 13 0 33 6 43 14 17 12 18 19 8 60 -9 43 -9 46 9 46 13 0 18 -5 15 -14 -7
-19 38 -39 51 -23 26 34 25 39 -7 32 -23 -5 -31 -3 -31 8 0 8 -20 32 -45 55
-25 22 -45 47 -45 55 0 25 -59 97 -80 97 -10 0 -24 9 -30 20 -6 11 -20 20 -31
20 -11 0 -17 -4 -14 -10 4 -6 -3 -6 -21 0 -24 10 -30 7 -55 -22 -16 -18 -29
-44 -29 -58 -2 -28 -18 -73 -19 -51 -1 8 -8 11 -21 8 -11 -3 -20 -1 -20 4 0 4
-8 6 -17 2 -10 -3 -15 -3 -11 2 4 4 -3 15 -14 25 l-22 18 32 7 c17 3 35 11 38
17 9 14 -16 58 -33 58 -7 0 -13 6 -13 14 0 7 -7 20 -16 27 -9 7 -20 22 -24 34
-5 11 -9 14 -9 8z m-2 -99 c-5 -6 -6 -20 -3 -30 5 -13 4 -16 -3 -9 -6 6 -14
20 -17 32 -6 18 -3 22 13 20 14 -1 17 -5 10 -13z m-50 -45 c-21 -13 -36 -10
-19 4 9 7 14 21 13 32 -3 17 -1 17 9 -3 9 -19 9 -25 -3 -33z m-44 -19 c-3 -5
-11 -10 -17 -10 -6 0 -17 -8 -24 -17 -12 -16 -15 -16 -24 -3 -14 21 -12 33 3
27 8 -3 20 -1 28 4 19 12 42 11 34 -1z m400 -43 c17 -34 20 -77 5 -77 -5 0 -7
6 -4 13 5 15 -21 83 -36 92 -5 3 -10 11 -10 17 0 17 28 -11 45 -45z m-215 -49
c0 -19 -2 -20 -10 -8 -13 19 -13 30 0 30 6 0 10 -10 10 -22z m320 -7 c0 -5 -7
-12 -16 -15 -14 -5 -15 -4 -4 9 14 17 20 19 20 6z m34 -37 c3 -8 2 -12 -4 -9
-6 3 -10 10 -10 16 0 14 7 11 14 -7z m-283 -17 c-8 -8 -16 -7 -27 5 -14 14
-14 15 11 10 19 -3 23 -8 16 -15z m-64 -9 c-3 -8 -6 -5 -6 6 -1 11 2 17 5 13
3 -3 4 -12 1 -19z m10 -50 c-3 -7 -5 -2 -5 12 0 14 2 19 5 13 2 -7 2 -19 0
-25z m-123 -23 c7 -19 -23 -36 -39 -21 -10 8 -9 14 4 23 21 16 28 16 35 -2z
m266 5 c0 -5 -10 -10 -22 -10 -19 0 -20 2 -8 10 19 13 30 13 30 0z m-420 -20
c0 -5 -5 -10 -11 -10 -5 0 -7 5 -4 10 3 6 8 10 11 10 2 0 4 -4 4 -10z m20 -55
c0 -5 -5 -3 -10 5 -5 8 -10 20 -10 25 0 6 5 3 10 -5 5 -8 10 -19 10 -25z"/>
<path d="M6137 8459 c-9 -6 -17 -16 -17 -24 0 -9 -6 -12 -15 -9 -17 7 -21 -11
-4 -21 6 -4 16 0 22 9 7 8 23 17 37 18 28 4 50 15 50 27 0 11 -52 11 -73 0z"/>
<path d="M5926 8435 c4 -8 13 -15 21 -15 13 0 13 3 3 15 -7 8 -16 15 -21 15
-5 0 -6 -7 -3 -15z"/>
<path d="M5853 8433 c-7 -2 -13 -9 -13 -14 0 -6 6 -7 13 -3 9 6 9 4 -1 -8 -10
-13 -9 -18 10 -30 13 -8 33 -18 45 -22 18 -6 22 -4 17 8 -3 9 -1 16 6 16 6 0
10 -8 8 -17 -5 -27 -55 -29 -82 -4 -24 23 -82 26 -106 5 -23 -19 -74 -30 -68
-14 2 7 12 14 22 16 32 5 47 14 41 25 -5 7 -13 5 -24 -5 -10 -9 -20 -14 -23
-11 -3 3 -13 -4 -23 -15 -14 -15 -15 -20 -4 -20 11 0 11 -2 -1 -11 -13 -9 -13
-10 2 -6 9 3 19 -1 22 -9 3 -8 13 -14 23 -14 10 0 27 -7 37 -15 11 -8 29 -13
40 -10 20 6 20 6 2 -9 -23 -19 -14 -46 16 -46 28 0 81 33 71 45 -5 4 -3 5 3 2
11 -7 87 28 117 52 23 21 22 36 -6 54 -21 14 -24 13 -33 -1 -9 -14 -11 -14
-17 1 -3 9 -2 17 3 17 6 0 10 5 10 10 0 12 -22 9 -31 -3 -4 -5 -9 2 -12 15 -6
23 -35 33 -64 21z m-43 -97 c0 -2 -7 -7 -16 -10 -8 -3 -12 -2 -9 4 6 10 25 14
25 6z"/>
<path d="M7290 8416 c-8 -11 -13 -25 -12 -29 1 -5 -2 -6 -8 -2 -17 11 -70 -18
-70 -38 0 -10 -4 -15 -10 -12 -5 3 -10 1 -10 -5 0 -6 -3 -9 -7 -7 -5 3 -8 -10
-9 -29 0 -33 0 -33 19 -16 19 16 20 16 8 -5 -6 -12 -11 -29 -11 -38 0 -21 42
-63 58 -57 7 2 12 -1 12 -7 0 -14 36 -14 63 1 12 6 35 25 52 41 26 26 27 29 7
23 -16 -6 -22 -3 -22 9 0 14 -3 14 -31 0 -17 -9 -33 -14 -36 -11 -6 6 57 46
73 46 40 0 34 91 -8 122 -13 10 -28 22 -34 27 -7 5 -16 1 -24 -13z m-50 -216
c0 -5 -5 -10 -11 -10 -5 0 -7 5 -4 10 3 6 8 10 11 10 2 0 4 -4 4 -10z"/>
<path d="M5422 8388 c-7 -7 -12 -8 -12 -4 0 5 -7 3 -15 -4 -8 -7 -12 -16 -9
-21 3 -5 0 -9 -6 -9 -6 0 -8 -5 -5 -10 4 -6 11 -8 16 -4 5 3 16 1 23 -5 17
-14 29 9 19 37 -5 14 -3 13 10 -3 8 -11 13 -24 10 -29 -4 -5 -1 -6 5 -2 22 13
7 66 -18 66 -3 0 -11 -5 -18 -12z"/>
<path d="M6100 8360 c0 -5 7 -10 15 -10 8 0 15 5 15 10 0 6 -7 10 -15 10 -8 0
-15 -4 -15 -10z"/>
<path d="M7127 8322 c8 -5 9 -13 3 -22 -7 -10 -10 -11 -10 -2 0 17 -27 15 -34
-3 -3 -8 -11 -15 -18 -15 -7 0 -22 -12 -33 -27 -11 -15 -32 -40 -47 -57 -32
-35 -33 -39 -13 -56 10 -8 24 -9 42 -4 16 4 37 9 47 10 29 2 57 42 54 78 -1
17 6 45 15 63 21 40 21 43 0 43 -12 0 -14 -3 -6 -8z"/>
<path d="M5660 8289 c0 -5 5 -7 10 -4 6 3 10 8 10 11 0 2 -4 4 -10 4 -5 0 -10
-5 -10 -11z"/>
<path d="M5397 8269 c7 -7 15 -10 18 -7 3 3 -2 9 -12 12 -14 6 -15 5 -6 -5z"/>
<path d="M5702 8236 c1 -19 5 -33 10 -30 11 7 10 51 -2 59 -5 3 -9 -9 -8 -29z"/>
<path d="M4475 8250 c3 -5 8 -10 11 -10 2 0 4 5 4 10 0 6 -5 10 -11 10 -5 0
-7 -4 -4 -10z"/>
<path d="M7906 8253 c-11 -3 -26 -11 -34 -19 -22 -23 18 -18 48 6 25 20 22 22
-14 13z"/>
<path d="M5350 8246 c0 -2 6 -9 13 -15 10 -8 14 -7 14 4 0 8 -6 15 -14 15 -7
0 -13 -2 -13 -4z"/>
<path d="M4638 8193 c-10 -2 -18 -9 -18 -15 0 -5 7 -7 16 -4 9 3 20 6 25 6 5
0 9 5 9 10 0 10 -3 11 -32 3z"/>
<path d="M5816 8161 c-17 -6 -17 -8 -3 -14 8 -3 21 1 27 9 13 15 6 17 -24 5z"/>
<path d="M4339 8142 c5 -10 18 -25 28 -33 12 -10 11 -5 -6 19 -24 35 -38 43
-22 14z"/>
<path d="M7963 8135 c-28 -12 -65 -55 -47 -55 3 0 1 -7 -6 -15 -7 -9 -19 -14
-26 -11 -35 13 -25 -35 12 -59 30 -19 48 -15 94 25 19 16 38 30 42 30 3 0 4
10 0 22 -4 18 -2 20 14 14 18 -7 18 -6 1 11 -16 16 -19 16 -28 3 -9 -13 -10
-12 -5 3 6 18 -2 47 -13 47 -3 -1 -20 -7 -38 -15z"/>
<path d="M6890 8091 c0 -10 42 -23 49 -15 7 6 -20 24 -36 24 -7 0 -13 -4 -13
-9z"/>
<path d="M7824 8084 c-18 -14 -18 -14 6 -3 31 14 36 19 24 19 -6 0 -19 -7 -30
-16z"/>
<path d="M6108 8063 c6 -2 18 -2 25 0 6 3 1 5 -13 5 -14 0 -19 -2 -12 -5z"/>
<path d="M7960 7965 c-8 -9 -8 -15 -2 -15 6 0 12 5 14 12 3 7 10 8 17 4 11 -7
11 -10 0 -17 -10 -6 -8 -9 9 -9 26 0 27 3 6 24 -19 20 -28 20 -44 1z"/>
<path d="M8040 7960 c0 -5 5 -10 10 -10 6 0 10 5 10 10 0 6 -4 10 -10 10 -5 0
-10 -4 -10 -10z"/>
<path d="M6820 7875 c-8 -9 -8 -15 -2 -15 12 0 26 19 19 26 -2 2 -10 -2 -17
-11z"/>
<path d="M6698 7648 c6 -6 18 -8 28 -6 14 3 12 5 -9 10 -19 3 -25 2 -19 -4z"/>
<path d="M6618 7643 c6 -2 18 -2 25 0 6 3 1 5 -13 5 -14 0 -19 -2 -12 -5z"/>
<path d="M7845 7250 c-4 -6 12 -10 42 -10 35 0 44 3 33 10 -20 13 -67 13 -75
0z"/>
<path d="M8098 7243 c7 -3 16 -2 19 1 4 3 -2 6 -13 5 -11 0 -14 -3 -6 -6z"/>
<path d="M6150 7091 c-20 -5 -26 -14 -28 -42 -4 -42 14 -92 30 -87 6 2 22 -6
34 -19 17 -17 30 -22 47 -18 15 4 28 1 36 -9 20 -24 42 -20 84 15 35 28 40 30
55 16 15 -14 19 -14 40 3 28 23 39 78 22 109 -9 18 -19 22 -48 20 -20 -2 -56
3 -80 11 -30 9 -48 10 -65 3 -12 -6 -31 -7 -42 -2 -24 9 -51 9 -85 0z"/>
<path d="M7718 7055 c-70 -12 -130 -24 -133 -27 -3 -3 7 -10 22 -16 15 -5 37
-17 47 -25 19 -14 19 -15 -2 -26 -31 -16 -28 -25 16 -41 l37 -14 -35 -7 c-19
-5 -59 -5 -87 -2 -44 5 -53 3 -53 -10 0 -9 13 -18 32 -23 18 -3 43 -13 56 -22
19 -13 20 -16 7 -26 -9 -6 -36 -9 -62 -7 -44 3 -45 4 -23 16 19 10 20 14 8 21
-8 5 -27 26 -43 47 -22 30 -34 37 -54 35 -14 -2 -25 -8 -24 -14 4 -22 -36 -22
-63 -2 -20 16 -23 23 -12 30 9 6 5 7 -11 3 -14 -5 -21 -3 -17 3 6 11 -29 19
-119 28 -53 5 -70 2 -116 -19 -69 -32 -121 -49 -114 -37 3 4 19 11 35 15 17 4
30 9 30 12 0 17 -45 63 -61 63 -33 0 -89 -28 -89 -44 0 -9 -6 -13 -14 -10 -9
4 -21 -6 -31 -26 l-17 -32 39 7 c31 5 42 2 57 -14 10 -11 15 -24 11 -30 -6
-11 153 -90 184 -92 30 -1 95 -44 113 -74 17 -30 11 -64 -10 -51 -5 3 -63 7
-129 9 -115 4 -121 5 -190 41 -43 23 -75 47 -82 62 -6 13 -18 27 -26 30 -8 4
-15 12 -15 19 0 7 -15 26 -32 41 -18 15 -32 31 -31 36 3 7 -12 12 -29 9 -5 0
-8 10 -8 23 0 16 -8 26 -22 31 -53 17 -77 15 -108 -11 -84 -71 -85 -188 -3
-215 38 -12 37 -9 18 -56 -15 -34 -14 -42 12 -125 22 -71 34 -95 65 -123 49
-46 73 -54 152 -54 47 1 70 6 85 19 12 9 21 20 21 23 0 3 13 19 29 36 16 17
36 51 44 74 15 41 15 42 16 10 1 -22 9 -38 29 -52 19 -15 21 -19 7 -15 -14 5
-17 4 -10 -4 6 -5 19 -12 29 -14 25 -4 33 -28 9 -29 -16 0 -16 -1 2 -9 11 -5
16 -9 10 -9 -5 -1 10 -13 35 -27 37 -21 48 -23 66 -13 12 6 27 8 33 5 6 -4 11
-3 11 2 0 5 13 15 30 22 16 7 27 16 24 21 -3 5 2 12 10 15 9 3 19 22 22 42 4
21 13 51 21 69 18 45 17 48 -22 92 -28 31 -31 38 -16 34 27 -7 72 29 91 72
l15 34 69 -31 c68 -30 75 -31 244 -34 157 -3 177 -2 198 15 23 18 23 18 4 39
-24 25 -16 31 47 38 41 5 57 1 113 -28 36 -19 76 -38 90 -42 26 -8 23 -10 -25
-21 -29 -6 -29 -7 -11 -21 11 -8 28 -14 37 -14 10 0 20 -4 23 -8 2 -4 -26 -8
-62 -7 -86 0 -194 -14 -206 -26 -6 -5 5 -9 30 -10 21 -1 50 -5 64 -10 17 -5
-1 -7 -55 -5 -44 1 -89 6 -100 11 l-20 8 20 -17 20 -18 -20 7 c-49 17 -52 17
-57 -9 -3 -15 0 -31 8 -37 7 -5 11 -20 8 -33 -4 -21 1 -23 89 -35 81 -11 135
-11 327 2 8 0 53 -3 100 -7 47 -4 132 -9 190 -11 122 -3 153 -7 317 -46 178
-42 254 -49 276 -28 11 10 44 20 83 24 l64 7 0 275 0 276 -46 -7 c-25 -3 -105
-26 -178 -51 -73 -25 -141 -45 -151 -45 -10 0 -15 -3 -12 -7 10 -10 -42 -33
-74 -33 -16 0 -29 -4 -29 -8 0 -11 -52 -16 -155 -13 -49 1 -124 2 -165 2 -84
-1 -153 16 -128 30 9 5 31 24 49 42 20 20 65 46 109 63 l75 29 -105 10 c-62 6
-110 7 -117 2 -7 -5 -31 -7 -53 -5 -22 2 -40 0 -40 -4 0 -5 -16 -8 -35 -8 -29
0 -117 -14 -150 -24 -5 -2 -14 -5 -20 -6 -5 -1 -21 -6 -33 -11 -17 -7 -36 -4
-67 10 -24 11 -45 18 -47 16 -2 -2 -19 -6 -38 -8 -19 -3 -50 -10 -67 -17 -18
-6 -38 -10 -45 -7 -7 3 -4 6 7 6 11 1 34 10 50 21 l30 21 -28 -7 c-22 -5 -26
-3 -21 9 4 11 15 14 37 12 133 -16 124 -18 161 23 19 20 31 40 28 44 -4 4 -39
14 -77 21 -63 12 -83 11 -197 -8z m-13 -315 c4 -6 -7 -10 -24 -10 -17 0 -31 5
-31 10 0 6 11 10 24 10 14 0 28 -4 31 -10z m735 -37 c0 -13 -52 -33 -64 -25
-6 3 -15 7 -21 8 -34 4 -37 7 -10 14 41 10 95 12 95 3z m101 -40 c13 -17 13
-17 -6 -3 -11 8 -22 16 -24 17 -2 2 0 3 6 3 6 0 17 -8 24 -17z"/>
<path d="M7540 6920 c0 -5 11 -10 25 -10 14 0 25 5 25 10 0 6 -11 10 -25 10
-14 0 -25 -4 -25 -10z"/>
<path d="M6158 6738 c-12 -13 -38 -27 -56 -33 -48 -14 -41 -29 17 -35 27 -3
51 -8 53 -10 2 -3 13 -22 23 -43 33 -65 103 -90 186 -67 29 8 38 17 47 46 6
20 9 41 6 47 -3 8 14 12 51 13 30 0 60 5 66 11 13 13 -38 15 -63 2 -10 -6 -32
-3 -59 6 -23 9 -51 12 -62 9 -11 -3 -17 -2 -14 3 8 13 -80 59 -130 67 -36 6
-45 4 -65 -16z"/>
<path d="M9028 6103 c7 -3 16 -2 19 1 4 3 -2 6 -13 5 -11 0 -14 -3 -6 -6z"/>
<path d="M5710 6075 c-7 -8 -8 -15 -2 -15 5 0 15 7 22 15 7 8 8 15 2 15 -5 0
-15 -7 -22 -15z"/>
<path d="M5668 6063 c7 -3 16 -2 19 1 4 3 -2 6 -13 5 -11 0 -14 -3 -6 -6z"/>
<path d="M5175 5900 c-3 -5 -1 -10 4 -10 6 0 11 5 11 10 0 6 -2 10 -4 10 -3 0
-8 -4 -11 -10z"/>
<path d="M9130 5842 c0 -7 -9 -12 -20 -12 -14 0 -18 -5 -13 -16 5 -14 8 -13
26 5 12 11 18 24 14 27 -4 4 -7 2 -7 -4z"/>
<path d="M2510 5760 c-13 -8 -12 -10 3 -10 9 0 17 5 17 10 0 12 -1 12 -20 0z"/>
<path d="M5067 5733 c-12 -12 -7 -22 8 -17 8 4 15 10 15 15 0 11 -14 12 -23 2z"/>
<path d="M9218 5603 c6 -2 18 -2 25 0 6 3 1 5 -13 5 -14 0 -19 -2 -12 -5z"/>
<path d="M3280 4251 c0 -5 7 -15 17 -22 15 -13 15 -12 4 9 -12 23 -21 28 -21
13z"/>
</g>
</svg>
